<svg width="262" height="448" viewBox="0 0 262 448" fill="none" xmlns="http://www.w3.org/2000/svg">
<rect x="0.5" y="0.5" width="261" height="447" rx="16.5" fill="#031E21" fill-opacity="0.1"/>
<rect x="0.5" y="0.5" width="261" height="447" rx="16.5" stroke="#24A0B5"/>
<rect x="63" y="114" width="136" height="136" rx="10" stroke="#24A0B5" stroke-opacity="0.5" stroke-width="4" style="mix-blend-mode:plus-lighter"/>
<rect x="14.5" y="271.5" width="233" height="161" rx="8.5" stroke="#133D44"/>
<mask id="path-4-outside-1_2010_4054" maskUnits="userSpaceOnUse" x="19" y="276" width="224" height="46" fill="black">
<rect fill="white" x="19" y="276" width="224" height="46"/>
<path d="M19 276H243V321H19V276Z"/>
</mask>
<path d="M243 320H19V322H243V320Z" fill="#12464E" mask="url(#path-4-outside-1_2010_4054)"/>
<mask id="path-6-inside-2_2010_4054" fill="white">
<path d="M19 276H127V321H19V276Z"/>
</mask>
<path d="M126 276V321H128V276H126Z" fill="#12464E" mask="url(#path-6-inside-2_2010_4054)"/>
<path opacity="0.33" d="M28.3418 290.233V291H24.5771V290.233H28.3418ZM24.7676 283.891V291H23.8252V283.891H24.7676ZM27.8438 286.947V287.714H24.5771V286.947H27.8438ZM28.293 283.891V284.662H24.5771V283.891H28.293ZM30.2754 286.845V291H29.3721V285.717H30.2266L30.2754 286.845ZM30.0605 288.158L29.6846 288.144C29.6878 287.782 29.7415 287.449 29.8457 287.143C29.9499 286.833 30.0964 286.565 30.2852 286.337C30.474 286.109 30.6986 285.933 30.959 285.81C31.2227 285.683 31.514 285.619 31.833 285.619C32.0934 285.619 32.3278 285.655 32.5361 285.727C32.7445 285.795 32.9219 285.906 33.0684 286.059C33.2181 286.212 33.332 286.41 33.4102 286.654C33.4883 286.895 33.5273 287.19 33.5273 287.538V291H32.6191V287.528C32.6191 287.252 32.5785 287.03 32.4971 286.864C32.4157 286.695 32.2969 286.573 32.1406 286.498C31.9844 286.42 31.7923 286.381 31.5645 286.381C31.3398 286.381 31.1348 286.428 30.9492 286.522C30.7669 286.617 30.609 286.747 30.4756 286.913C30.3454 287.079 30.2428 287.27 30.168 287.484C30.0964 287.696 30.0605 287.921 30.0605 288.158ZM37.1113 285.717V286.41H34.2549V285.717H37.1113ZM35.2217 284.433H36.125V289.691C36.125 289.87 36.1527 290.006 36.208 290.097C36.2633 290.188 36.335 290.248 36.4229 290.277C36.5107 290.307 36.6051 290.321 36.7061 290.321C36.7809 290.321 36.859 290.315 36.9404 290.302C37.0251 290.285 37.0885 290.272 37.1309 290.263L37.1357 291C37.0641 291.023 36.9697 291.044 36.8525 291.063C36.7386 291.086 36.6003 291.098 36.4375 291.098C36.2161 291.098 36.0127 291.054 35.8271 290.966C35.6416 290.878 35.4935 290.731 35.3828 290.526C35.2754 290.318 35.2217 290.038 35.2217 289.687V284.433ZM40.3633 291.098C39.9954 291.098 39.6618 291.036 39.3623 290.912C39.0661 290.785 38.8105 290.608 38.5957 290.38C38.3841 290.152 38.2214 289.882 38.1074 289.569C37.9935 289.257 37.9365 288.915 37.9365 288.544V288.339C37.9365 287.909 38 287.527 38.127 287.191C38.2539 286.853 38.4264 286.566 38.6445 286.332C38.8626 286.098 39.11 285.92 39.3867 285.8C39.6634 285.679 39.9499 285.619 40.2461 285.619C40.6237 285.619 40.9492 285.684 41.2227 285.814C41.4993 285.945 41.7256 286.127 41.9014 286.361C42.0771 286.592 42.2074 286.866 42.292 287.182C42.3766 287.494 42.4189 287.836 42.4189 288.207V288.612H38.4736V287.875H41.5156V287.807C41.5026 287.572 41.4538 287.344 41.3691 287.123C41.2878 286.902 41.1576 286.719 40.9785 286.576C40.7995 286.433 40.5553 286.361 40.2461 286.361C40.041 286.361 39.8522 286.405 39.6797 286.493C39.5072 286.578 39.359 286.705 39.2354 286.874C39.1117 287.043 39.0156 287.25 38.9473 287.494C38.8789 287.738 38.8447 288.02 38.8447 288.339V288.544C38.8447 288.795 38.8789 289.031 38.9473 289.252C39.0189 289.47 39.1214 289.662 39.2549 289.828C39.3916 289.994 39.556 290.124 39.748 290.219C39.9434 290.313 40.1647 290.36 40.4121 290.36C40.7311 290.36 41.0013 290.295 41.2227 290.165C41.444 290.035 41.6377 289.861 41.8037 289.643L42.3506 290.077C42.2367 290.25 42.0918 290.414 41.916 290.57C41.7402 290.727 41.5238 290.854 41.2666 290.951C41.0127 291.049 40.7116 291.098 40.3633 291.098ZM44.377 286.547V291H43.4736V285.717H44.3525L44.377 286.547ZM46.0273 285.688L46.0225 286.527C45.9476 286.511 45.876 286.501 45.8076 286.498C45.7425 286.492 45.6676 286.488 45.583 286.488C45.3747 286.488 45.1908 286.521 45.0312 286.586C44.8717 286.651 44.7367 286.742 44.626 286.859C44.5153 286.977 44.4274 287.117 44.3623 287.279C44.3005 287.439 44.2598 287.615 44.2402 287.807L43.9863 287.953C43.9863 287.634 44.0173 287.335 44.0791 287.055C44.1442 286.775 44.2435 286.527 44.377 286.312C44.5104 286.094 44.6797 285.925 44.8848 285.805C45.0931 285.681 45.3405 285.619 45.627 285.619C45.6921 285.619 45.7669 285.627 45.8516 285.644C45.9362 285.657 45.9948 285.671 46.0273 285.688ZM50.8271 290.453L52.2969 285.717H53.2637L51.1445 291.815C51.0957 291.946 51.0306 292.086 50.9492 292.235C50.8711 292.388 50.7702 292.533 50.6465 292.67C50.5228 292.807 50.373 292.917 50.1973 293.002C50.0247 293.09 49.818 293.134 49.5771 293.134C49.5055 293.134 49.4144 293.124 49.3037 293.104C49.193 293.085 49.1149 293.069 49.0693 293.056L49.0645 292.323C49.0905 292.326 49.1312 292.33 49.1865 292.333C49.2451 292.34 49.2858 292.343 49.3086 292.343C49.5137 292.343 49.6878 292.315 49.8311 292.26C49.9743 292.208 50.0947 292.118 50.1924 291.991C50.2933 291.868 50.3796 291.697 50.4512 291.479L50.8271 290.453ZM49.748 285.717L51.1201 289.818L51.3545 290.771L50.7051 291.103L48.7617 285.717H49.748ZM53.7617 288.417V288.305C53.7617 287.924 53.8171 287.571 53.9277 287.245C54.0384 286.916 54.1979 286.632 54.4062 286.391C54.6146 286.146 54.8669 285.958 55.1631 285.824C55.4593 285.688 55.7913 285.619 56.1592 285.619C56.5303 285.619 56.8639 285.688 57.1602 285.824C57.4596 285.958 57.7135 286.146 57.9219 286.391C58.1335 286.632 58.2946 286.916 58.4053 287.245C58.516 287.571 58.5713 287.924 58.5713 288.305V288.417C58.5713 288.798 58.516 289.151 58.4053 289.477C58.2946 289.802 58.1335 290.087 57.9219 290.331C57.7135 290.572 57.4613 290.761 57.165 290.897C56.8721 291.031 56.54 291.098 56.1689 291.098C55.7979 291.098 55.4642 291.031 55.168 290.897C54.8717 290.761 54.6178 290.572 54.4062 290.331C54.1979 290.087 54.0384 289.802 53.9277 289.477C53.8171 289.151 53.7617 288.798 53.7617 288.417ZM54.665 288.305V288.417C54.665 288.681 54.696 288.93 54.7578 289.164C54.8197 289.395 54.9124 289.6 55.0361 289.779C55.1631 289.958 55.321 290.1 55.5098 290.204C55.6986 290.305 55.9183 290.355 56.1689 290.355C56.4163 290.355 56.6328 290.305 56.8184 290.204C57.0072 290.1 57.1634 289.958 57.2871 289.779C57.4108 289.6 57.5036 289.395 57.5654 289.164C57.6305 288.93 57.6631 288.681 57.6631 288.417V288.305C57.6631 288.044 57.6305 287.799 57.5654 287.567C57.5036 287.333 57.4092 287.126 57.2822 286.947C57.1585 286.765 57.0023 286.622 56.8135 286.518C56.6279 286.413 56.4098 286.361 56.1592 286.361C55.9118 286.361 55.6937 286.413 55.5049 286.518C55.3193 286.622 55.1631 286.765 55.0361 286.947C54.9124 287.126 54.8197 287.333 54.7578 287.567C54.696 287.799 54.665 288.044 54.665 288.305ZM62.9365 289.779V285.717H63.8447V291H62.9805L62.9365 289.779ZM63.1074 288.666L63.4834 288.656C63.4834 289.008 63.446 289.333 63.3711 289.633C63.2995 289.929 63.1823 290.186 63.0195 290.404C62.8568 290.622 62.6436 290.793 62.3799 290.917C62.1162 291.037 61.7956 291.098 61.418 291.098C61.1608 291.098 60.9248 291.06 60.71 290.985C60.4984 290.91 60.3161 290.795 60.1631 290.639C60.0101 290.482 59.8913 290.279 59.8066 290.028C59.7253 289.778 59.6846 289.477 59.6846 289.125V285.717H60.5879V289.135C60.5879 289.372 60.6139 289.569 60.666 289.726C60.7214 289.879 60.7946 290.001 60.8857 290.092C60.9801 290.18 61.0843 290.242 61.1982 290.277C61.3154 290.313 61.4359 290.331 61.5596 290.331C61.9437 290.331 62.248 290.258 62.4727 290.111C62.6973 289.962 62.8584 289.761 62.9561 289.511C63.057 289.257 63.1074 288.975 63.1074 288.666ZM66.125 286.547V291H65.2217V285.717H66.1006L66.125 286.547ZM67.7754 285.688L67.7705 286.527C67.6956 286.511 67.624 286.501 67.5557 286.498C67.4906 286.492 67.4157 286.488 67.3311 286.488C67.1227 286.488 66.9388 286.521 66.7793 286.586C66.6198 286.651 66.4847 286.742 66.374 286.859C66.2633 286.977 66.1755 287.117 66.1104 287.279C66.0485 287.439 66.0078 287.615 65.9883 287.807L65.7344 287.953C65.7344 287.634 65.7653 287.335 65.8271 287.055C65.8923 286.775 65.9915 286.527 66.125 286.312C66.2585 286.094 66.4277 285.925 66.6328 285.805C66.8411 285.681 67.0885 285.619 67.375 285.619C67.4401 285.619 67.515 285.627 67.5996 285.644C67.6842 285.657 67.7428 285.671 67.7754 285.688ZM71.9941 286.845V291H71.0908V285.717H71.9453L71.9941 286.845ZM71.7793 288.158L71.4033 288.144C71.4066 287.782 71.4603 287.449 71.5645 287.143C71.6686 286.833 71.8151 286.565 72.0039 286.337C72.1927 286.109 72.4173 285.933 72.6777 285.81C72.9414 285.683 73.2327 285.619 73.5518 285.619C73.8122 285.619 74.0465 285.655 74.2549 285.727C74.4632 285.795 74.6406 285.906 74.7871 286.059C74.9368 286.212 75.0508 286.41 75.1289 286.654C75.207 286.895 75.2461 287.19 75.2461 287.538V291H74.3379V287.528C74.3379 287.252 74.2972 287.03 74.2158 286.864C74.1344 286.695 74.0156 286.573 73.8594 286.498C73.7031 286.42 73.5111 286.381 73.2832 286.381C73.0586 286.381 72.8535 286.428 72.668 286.522C72.4857 286.617 72.3278 286.747 72.1943 286.913C72.0641 287.079 71.9616 287.27 71.8867 287.484C71.8151 287.696 71.7793 287.921 71.7793 288.158ZM79.7334 290.097V287.377C79.7334 287.169 79.6911 286.988 79.6064 286.835C79.5251 286.679 79.4014 286.558 79.2354 286.474C79.0693 286.389 78.8643 286.347 78.6201 286.347C78.3923 286.347 78.1921 286.386 78.0195 286.464C77.8503 286.542 77.7168 286.645 77.6191 286.771C77.5247 286.898 77.4775 287.035 77.4775 287.182H76.5742C76.5742 286.993 76.623 286.806 76.7207 286.62C76.8184 286.435 76.9583 286.267 77.1406 286.117C77.3262 285.964 77.5475 285.844 77.8047 285.756C78.0651 285.665 78.3548 285.619 78.6738 285.619C79.0579 285.619 79.3965 285.684 79.6895 285.814C79.9857 285.945 80.2168 286.142 80.3828 286.405C80.5521 286.666 80.6367 286.993 80.6367 287.387V289.848C80.6367 290.023 80.6514 290.211 80.6807 290.409C80.7132 290.608 80.7604 290.779 80.8223 290.922V291H79.8799C79.8343 290.896 79.7985 290.757 79.7725 290.585C79.7464 290.409 79.7334 290.246 79.7334 290.097ZM79.8896 287.797L79.8994 288.432H78.9863C78.7292 288.432 78.4997 288.453 78.2979 288.495C78.096 288.534 77.9268 288.594 77.79 288.676C77.6533 288.757 77.5492 288.86 77.4775 288.983C77.4059 289.104 77.3701 289.245 77.3701 289.408C77.3701 289.574 77.4076 289.726 77.4824 289.862C77.5573 289.999 77.6696 290.108 77.8193 290.189C77.9723 290.268 78.1595 290.307 78.3809 290.307C78.6576 290.307 78.9017 290.248 79.1133 290.131C79.3249 290.014 79.4925 289.87 79.6162 289.701C79.7432 289.532 79.8115 289.368 79.8213 289.208L80.207 289.643C80.1842 289.779 80.1224 289.931 80.0215 290.097C79.9206 290.263 79.7855 290.422 79.6162 290.575C79.4502 290.725 79.2516 290.85 79.0205 290.951C78.7926 291.049 78.5355 291.098 78.249 291.098C77.891 291.098 77.5768 291.028 77.3066 290.888C77.0397 290.748 76.8314 290.561 76.6816 290.326C76.5352 290.089 76.4619 289.823 76.4619 289.53C76.4619 289.247 76.5173 288.998 76.6279 288.783C76.7386 288.565 76.8981 288.384 77.1064 288.241C77.3148 288.095 77.5654 287.984 77.8584 287.909C78.1514 287.834 78.4785 287.797 78.8398 287.797H79.8896ZM82.9561 286.767V291H82.0479V285.717H82.9072L82.9561 286.767ZM82.7705 288.158L82.3506 288.144C82.3538 287.782 82.401 287.449 82.4922 287.143C82.5833 286.833 82.7184 286.565 82.8975 286.337C83.0765 286.109 83.2995 285.933 83.5664 285.81C83.8333 285.683 84.1426 285.619 84.4941 285.619C84.7415 285.619 84.9694 285.655 85.1777 285.727C85.3861 285.795 85.5667 285.904 85.7197 286.054C85.8727 286.203 85.9915 286.396 86.0762 286.63C86.1608 286.864 86.2031 287.147 86.2031 287.479V291H85.2998V287.523C85.2998 287.247 85.2526 287.025 85.1582 286.859C85.0671 286.693 84.9368 286.573 84.7676 286.498C84.5983 286.42 84.3997 286.381 84.1719 286.381C83.9049 286.381 83.682 286.428 83.5029 286.522C83.3239 286.617 83.1807 286.747 83.0732 286.913C82.9658 287.079 82.8877 287.27 82.8389 287.484C82.7933 287.696 82.7705 287.921 82.7705 288.158ZM86.1934 287.66L85.5879 287.846C85.5911 287.556 85.6383 287.278 85.7295 287.011C85.8239 286.744 85.959 286.506 86.1348 286.298C86.3138 286.09 86.5335 285.925 86.7939 285.805C87.0544 285.681 87.3522 285.619 87.6875 285.619C87.9707 285.619 88.2214 285.657 88.4395 285.731C88.6608 285.806 88.8464 285.922 88.9961 286.078C89.1491 286.231 89.2646 286.428 89.3428 286.669C89.4209 286.91 89.46 287.196 89.46 287.528V291H88.5518V287.519C88.5518 287.222 88.5046 286.993 88.4102 286.83C88.319 286.664 88.1888 286.549 88.0195 286.483C87.8535 286.415 87.6549 286.381 87.4238 286.381C87.2253 286.381 87.0495 286.415 86.8965 286.483C86.7435 286.552 86.6149 286.646 86.5107 286.767C86.4066 286.884 86.3268 287.019 86.2715 287.172C86.2194 287.325 86.1934 287.488 86.1934 287.66ZM93.0195 291.098C92.6517 291.098 92.318 291.036 92.0186 290.912C91.7223 290.785 91.4668 290.608 91.252 290.38C91.0404 290.152 90.8776 289.882 90.7637 289.569C90.6497 289.257 90.5928 288.915 90.5928 288.544V288.339C90.5928 287.909 90.6562 287.527 90.7832 287.191C90.9102 286.853 91.0827 286.566 91.3008 286.332C91.5189 286.098 91.7663 285.92 92.043 285.8C92.3197 285.679 92.6061 285.619 92.9023 285.619C93.2799 285.619 93.6055 285.684 93.8789 285.814C94.1556 285.945 94.3818 286.127 94.5576 286.361C94.7334 286.592 94.8636 286.866 94.9482 287.182C95.0329 287.494 95.0752 287.836 95.0752 288.207V288.612H91.1299V287.875H94.1719V287.807C94.1589 287.572 94.11 287.344 94.0254 287.123C93.944 286.902 93.8138 286.719 93.6348 286.576C93.4557 286.433 93.2116 286.361 92.9023 286.361C92.6973 286.361 92.5085 286.405 92.3359 286.493C92.1634 286.578 92.0153 286.705 91.8916 286.874C91.7679 287.043 91.6719 287.25 91.6035 287.494C91.5352 287.738 91.501 288.02 91.501 288.339V288.544C91.501 288.795 91.5352 289.031 91.6035 289.252C91.6751 289.47 91.7777 289.662 91.9111 289.828C92.0479 289.994 92.2122 290.124 92.4043 290.219C92.5996 290.313 92.821 290.36 93.0684 290.36C93.3874 290.36 93.6576 290.295 93.8789 290.165C94.1003 290.035 94.2939 289.861 94.46 289.643L95.0068 290.077C94.8929 290.25 94.748 290.414 94.5723 290.57C94.3965 290.727 94.18 290.854 93.9229 290.951C93.6689 291.049 93.3678 291.098 93.0195 291.098Z" fill="white"/>
<path opacity="0.33" d="M144.342 290.233V291H140.577V290.233H144.342ZM140.768 283.891V291H139.825V283.891H140.768ZM143.844 286.947V287.714H140.577V286.947H143.844ZM144.293 283.891V284.662H140.577V283.891H144.293ZM146.275 286.845V291H145.372V285.717H146.227L146.275 286.845ZM146.061 288.158L145.685 288.144C145.688 287.782 145.742 287.449 145.846 287.143C145.95 286.833 146.096 286.565 146.285 286.337C146.474 286.109 146.699 285.933 146.959 285.81C147.223 285.683 147.514 285.619 147.833 285.619C148.093 285.619 148.328 285.655 148.536 285.727C148.744 285.795 148.922 285.906 149.068 286.059C149.218 286.212 149.332 286.41 149.41 286.654C149.488 286.895 149.527 287.19 149.527 287.538V291H148.619V287.528C148.619 287.252 148.578 287.03 148.497 286.864C148.416 286.695 148.297 286.573 148.141 286.498C147.984 286.42 147.792 286.381 147.564 286.381C147.34 286.381 147.135 286.428 146.949 286.522C146.767 286.617 146.609 286.747 146.476 286.913C146.345 287.079 146.243 287.27 146.168 287.484C146.096 287.696 146.061 287.921 146.061 288.158ZM153.111 285.717V286.41H150.255V285.717H153.111ZM151.222 284.433H152.125V289.691C152.125 289.87 152.153 290.006 152.208 290.097C152.263 290.188 152.335 290.248 152.423 290.277C152.511 290.307 152.605 290.321 152.706 290.321C152.781 290.321 152.859 290.315 152.94 290.302C153.025 290.285 153.089 290.272 153.131 290.263L153.136 291C153.064 291.023 152.97 291.044 152.853 291.063C152.739 291.086 152.6 291.098 152.438 291.098C152.216 291.098 152.013 291.054 151.827 290.966C151.642 290.878 151.493 290.731 151.383 290.526C151.275 290.318 151.222 290.038 151.222 289.687V284.433ZM156.363 291.098C155.995 291.098 155.662 291.036 155.362 290.912C155.066 290.785 154.811 290.608 154.596 290.38C154.384 290.152 154.221 289.882 154.107 289.569C153.993 289.257 153.937 288.915 153.937 288.544V288.339C153.937 287.909 154 287.527 154.127 287.191C154.254 286.853 154.426 286.566 154.645 286.332C154.863 286.098 155.11 285.92 155.387 285.8C155.663 285.679 155.95 285.619 156.246 285.619C156.624 285.619 156.949 285.684 157.223 285.814C157.499 285.945 157.726 286.127 157.901 286.361C158.077 286.592 158.207 286.866 158.292 287.182C158.377 287.494 158.419 287.836 158.419 288.207V288.612H154.474V287.875H157.516V287.807C157.503 287.572 157.454 287.344 157.369 287.123C157.288 286.902 157.158 286.719 156.979 286.576C156.799 286.433 156.555 286.361 156.246 286.361C156.041 286.361 155.852 286.405 155.68 286.493C155.507 286.578 155.359 286.705 155.235 286.874C155.112 287.043 155.016 287.25 154.947 287.494C154.879 287.738 154.845 288.02 154.845 288.339V288.544C154.845 288.795 154.879 289.031 154.947 289.252C155.019 289.47 155.121 289.662 155.255 289.828C155.392 289.994 155.556 290.124 155.748 290.219C155.943 290.313 156.165 290.36 156.412 290.36C156.731 290.36 157.001 290.295 157.223 290.165C157.444 290.035 157.638 289.861 157.804 289.643L158.351 290.077C158.237 290.25 158.092 290.414 157.916 290.57C157.74 290.727 157.524 290.854 157.267 290.951C157.013 291.049 156.712 291.098 156.363 291.098ZM160.377 286.547V291H159.474V285.717H160.353L160.377 286.547ZM162.027 285.688L162.022 286.527C161.948 286.511 161.876 286.501 161.808 286.498C161.743 286.492 161.668 286.488 161.583 286.488C161.375 286.488 161.191 286.521 161.031 286.586C160.872 286.651 160.737 286.742 160.626 286.859C160.515 286.977 160.427 287.117 160.362 287.279C160.3 287.439 160.26 287.615 160.24 287.807L159.986 287.953C159.986 287.634 160.017 287.335 160.079 287.055C160.144 286.775 160.243 286.527 160.377 286.312C160.51 286.094 160.68 285.925 160.885 285.805C161.093 285.681 161.34 285.619 161.627 285.619C161.692 285.619 161.767 285.627 161.852 285.644C161.936 285.657 161.995 285.671 162.027 285.688ZM166.827 290.453L168.297 285.717H169.264L167.145 291.815C167.096 291.946 167.031 292.086 166.949 292.235C166.871 292.388 166.77 292.533 166.646 292.67C166.523 292.807 166.373 292.917 166.197 293.002C166.025 293.09 165.818 293.134 165.577 293.134C165.506 293.134 165.414 293.124 165.304 293.104C165.193 293.085 165.115 293.069 165.069 293.056L165.064 292.323C165.09 292.326 165.131 292.33 165.187 292.333C165.245 292.34 165.286 292.343 165.309 292.343C165.514 292.343 165.688 292.315 165.831 292.26C165.974 292.208 166.095 292.118 166.192 291.991C166.293 291.868 166.38 291.697 166.451 291.479L166.827 290.453ZM165.748 285.717L167.12 289.818L167.354 290.771L166.705 291.103L164.762 285.717H165.748ZM169.762 288.417V288.305C169.762 287.924 169.817 287.571 169.928 287.245C170.038 286.916 170.198 286.632 170.406 286.391C170.615 286.146 170.867 285.958 171.163 285.824C171.459 285.688 171.791 285.619 172.159 285.619C172.53 285.619 172.864 285.688 173.16 285.824C173.46 285.958 173.714 286.146 173.922 286.391C174.133 286.632 174.295 286.916 174.405 287.245C174.516 287.571 174.571 287.924 174.571 288.305V288.417C174.571 288.798 174.516 289.151 174.405 289.477C174.295 289.802 174.133 290.087 173.922 290.331C173.714 290.572 173.461 290.761 173.165 290.897C172.872 291.031 172.54 291.098 172.169 291.098C171.798 291.098 171.464 291.031 171.168 290.897C170.872 290.761 170.618 290.572 170.406 290.331C170.198 290.087 170.038 289.802 169.928 289.477C169.817 289.151 169.762 288.798 169.762 288.417ZM170.665 288.305V288.417C170.665 288.681 170.696 288.93 170.758 289.164C170.82 289.395 170.912 289.6 171.036 289.779C171.163 289.958 171.321 290.1 171.51 290.204C171.699 290.305 171.918 290.355 172.169 290.355C172.416 290.355 172.633 290.305 172.818 290.204C173.007 290.1 173.163 289.958 173.287 289.779C173.411 289.6 173.504 289.395 173.565 289.164C173.631 288.93 173.663 288.681 173.663 288.417V288.305C173.663 288.044 173.631 287.799 173.565 287.567C173.504 287.333 173.409 287.126 173.282 286.947C173.159 286.765 173.002 286.622 172.813 286.518C172.628 286.413 172.41 286.361 172.159 286.361C171.912 286.361 171.694 286.413 171.505 286.518C171.319 286.622 171.163 286.765 171.036 286.947C170.912 287.126 170.82 287.333 170.758 287.567C170.696 287.799 170.665 288.044 170.665 288.305ZM178.937 289.779V285.717H179.845V291H178.98L178.937 289.779ZM179.107 288.666L179.483 288.656C179.483 289.008 179.446 289.333 179.371 289.633C179.299 289.929 179.182 290.186 179.02 290.404C178.857 290.622 178.644 290.793 178.38 290.917C178.116 291.037 177.796 291.098 177.418 291.098C177.161 291.098 176.925 291.06 176.71 290.985C176.498 290.91 176.316 290.795 176.163 290.639C176.01 290.482 175.891 290.279 175.807 290.028C175.725 289.778 175.685 289.477 175.685 289.125V285.717H176.588V289.135C176.588 289.372 176.614 289.569 176.666 289.726C176.721 289.879 176.795 290.001 176.886 290.092C176.98 290.18 177.084 290.242 177.198 290.277C177.315 290.313 177.436 290.331 177.56 290.331C177.944 290.331 178.248 290.258 178.473 290.111C178.697 289.962 178.858 289.761 178.956 289.511C179.057 289.257 179.107 288.975 179.107 288.666ZM182.125 286.547V291H181.222V285.717H182.101L182.125 286.547ZM183.775 285.688L183.771 286.527C183.696 286.511 183.624 286.501 183.556 286.498C183.491 286.492 183.416 286.488 183.331 286.488C183.123 286.488 182.939 286.521 182.779 286.586C182.62 286.651 182.485 286.742 182.374 286.859C182.263 286.977 182.175 287.117 182.11 287.279C182.049 287.439 182.008 287.615 181.988 287.807L181.734 287.953C181.734 287.634 181.765 287.335 181.827 287.055C181.892 286.775 181.992 286.527 182.125 286.312C182.258 286.094 182.428 285.925 182.633 285.805C182.841 285.681 183.089 285.619 183.375 285.619C183.44 285.619 183.515 285.627 183.6 285.644C183.684 285.657 183.743 285.671 183.775 285.688ZM189.283 291.098C188.915 291.098 188.582 291.036 188.282 290.912C187.986 290.785 187.73 290.608 187.516 290.38C187.304 290.152 187.141 289.882 187.027 289.569C186.913 289.257 186.856 288.915 186.856 288.544V288.339C186.856 287.909 186.92 287.527 187.047 287.191C187.174 286.853 187.346 286.566 187.564 286.332C187.783 286.098 188.03 285.92 188.307 285.8C188.583 285.679 188.87 285.619 189.166 285.619C189.544 285.619 189.869 285.684 190.143 285.814C190.419 285.945 190.646 286.127 190.821 286.361C190.997 286.592 191.127 286.866 191.212 287.182C191.297 287.494 191.339 287.836 191.339 288.207V288.612H187.394V287.875H190.436V287.807C190.423 287.572 190.374 287.344 190.289 287.123C190.208 286.902 190.077 286.719 189.898 286.576C189.719 286.433 189.475 286.361 189.166 286.361C188.961 286.361 188.772 286.405 188.6 286.493C188.427 286.578 188.279 286.705 188.155 286.874C188.032 287.043 187.936 287.25 187.867 287.494C187.799 287.738 187.765 288.02 187.765 288.339V288.544C187.765 288.795 187.799 289.031 187.867 289.252C187.939 289.47 188.041 289.662 188.175 289.828C188.312 289.994 188.476 290.124 188.668 290.219C188.863 290.313 189.085 290.36 189.332 290.36C189.651 290.36 189.921 290.295 190.143 290.165C190.364 290.035 190.558 289.861 190.724 289.643L191.271 290.077C191.157 290.25 191.012 290.414 190.836 290.57C190.66 290.727 190.444 290.854 190.187 290.951C189.933 291.049 189.632 291.098 189.283 291.098ZM193.292 286.767V291H192.384V285.717H193.243L193.292 286.767ZM193.106 288.158L192.687 288.144C192.69 287.782 192.737 287.449 192.828 287.143C192.919 286.833 193.054 286.565 193.233 286.337C193.412 286.109 193.635 285.933 193.902 285.81C194.169 285.683 194.479 285.619 194.83 285.619C195.077 285.619 195.305 285.655 195.514 285.727C195.722 285.795 195.903 285.904 196.056 286.054C196.209 286.203 196.327 286.396 196.412 286.63C196.497 286.864 196.539 287.147 196.539 287.479V291H195.636V287.523C195.636 287.247 195.589 287.025 195.494 286.859C195.403 286.693 195.273 286.573 195.104 286.498C194.934 286.42 194.736 286.381 194.508 286.381C194.241 286.381 194.018 286.428 193.839 286.522C193.66 286.617 193.517 286.747 193.409 286.913C193.302 287.079 193.224 287.27 193.175 287.484C193.129 287.696 193.106 287.921 193.106 288.158ZM196.529 287.66L195.924 287.846C195.927 287.556 195.974 287.278 196.065 287.011C196.16 286.744 196.295 286.506 196.471 286.298C196.65 286.09 196.869 285.925 197.13 285.805C197.39 285.681 197.688 285.619 198.023 285.619C198.307 285.619 198.557 285.657 198.775 285.731C198.997 285.806 199.182 285.922 199.332 286.078C199.485 286.231 199.601 286.428 199.679 286.669C199.757 286.91 199.796 287.196 199.796 287.528V291H198.888V287.519C198.888 287.222 198.84 286.993 198.746 286.83C198.655 286.664 198.525 286.549 198.355 286.483C198.189 286.415 197.991 286.381 197.76 286.381C197.561 286.381 197.385 286.415 197.232 286.483C197.079 286.552 196.951 286.646 196.847 286.767C196.743 286.884 196.663 287.019 196.607 287.172C196.555 287.325 196.529 287.488 196.529 287.66ZM204.278 290.097V287.377C204.278 287.169 204.236 286.988 204.151 286.835C204.07 286.679 203.946 286.558 203.78 286.474C203.614 286.389 203.409 286.347 203.165 286.347C202.937 286.347 202.737 286.386 202.564 286.464C202.395 286.542 202.262 286.645 202.164 286.771C202.07 286.898 202.022 287.035 202.022 287.182H201.119C201.119 286.993 201.168 286.806 201.266 286.62C201.363 286.435 201.503 286.267 201.686 286.117C201.871 285.964 202.092 285.844 202.35 285.756C202.61 285.665 202.9 285.619 203.219 285.619C203.603 285.619 203.941 285.684 204.234 285.814C204.531 285.945 204.762 286.142 204.928 286.405C205.097 286.666 205.182 286.993 205.182 287.387V289.848C205.182 290.023 205.196 290.211 205.226 290.409C205.258 290.608 205.305 290.779 205.367 290.922V291H204.425C204.379 290.896 204.343 290.757 204.317 290.585C204.291 290.409 204.278 290.246 204.278 290.097ZM204.435 287.797L204.444 288.432H203.531C203.274 288.432 203.045 288.453 202.843 288.495C202.641 288.534 202.472 288.594 202.335 288.676C202.198 288.757 202.094 288.86 202.022 288.983C201.951 289.104 201.915 289.245 201.915 289.408C201.915 289.574 201.952 289.726 202.027 289.862C202.102 289.999 202.215 290.108 202.364 290.189C202.517 290.268 202.704 290.307 202.926 290.307C203.202 290.307 203.447 290.248 203.658 290.131C203.87 290.014 204.037 289.87 204.161 289.701C204.288 289.532 204.356 289.368 204.366 289.208L204.752 289.643C204.729 289.779 204.667 289.931 204.566 290.097C204.465 290.263 204.33 290.422 204.161 290.575C203.995 290.725 203.797 290.85 203.565 290.951C203.338 291.049 203.08 291.098 202.794 291.098C202.436 291.098 202.122 291.028 201.852 290.888C201.585 290.748 201.376 290.561 201.227 290.326C201.08 290.089 201.007 289.823 201.007 289.53C201.007 289.247 201.062 288.998 201.173 288.783C201.284 288.565 201.443 288.384 201.651 288.241C201.86 288.095 202.11 287.984 202.403 287.909C202.696 287.834 203.023 287.797 203.385 287.797H204.435ZM207.584 285.717V291H206.676V285.717H207.584ZM206.607 284.315C206.607 284.169 206.651 284.045 206.739 283.944C206.83 283.843 206.964 283.793 207.14 283.793C207.312 283.793 207.444 283.843 207.535 283.944C207.63 284.045 207.677 284.169 207.677 284.315C207.677 284.455 207.63 284.576 207.535 284.677C207.444 284.774 207.312 284.823 207.14 284.823C206.964 284.823 206.83 284.774 206.739 284.677C206.651 284.576 206.607 284.455 206.607 284.315ZM210.016 283.5V291H209.107V283.5H210.016ZM213.888 287.543L214.869 286.195L213.395 285.756L213.624 285.023L215.099 285.565L215.055 283.886H215.797L215.748 285.595L217.203 285.053L217.428 285.8L215.929 286.244L216.891 287.567L216.285 288.021L215.382 286.615L214.498 287.987L213.888 287.543Z" fill="white"/>
<mask id="path-10-outside-3_2010_4054" maskUnits="userSpaceOnUse" x="19" y="321" width="224" height="43" fill="black">
<rect fill="white" x="19" y="321" width="224" height="43"/>
<path d="M19 321H243V363H19V321Z"/>
</mask>
<path d="M243 362H19V364H243V362Z" fill="#12464E" mask="url(#path-10-outside-3_2010_4054)"/>
<mask id="path-12-inside-4_2010_4054" fill="white">
<path d="M19 321H127V363H19V321Z"/>
</mask>
<path d="M126 321V363H128V321H126Z" fill="#12464E" mask="url(#path-12-inside-4_2010_4054)"/>
<path opacity="0.33" d="M26.4521 328.891V336H25.5244V328.891H26.4521ZM28.7373 328.891V329.662H23.2441V328.891H28.7373ZM30.6367 330.717V336H29.7285V330.717H30.6367ZM29.6602 329.315C29.6602 329.169 29.7041 329.045 29.792 328.944C29.8831 328.843 30.0166 328.793 30.1924 328.793C30.3649 328.793 30.4967 328.843 30.5879 328.944C30.6823 329.045 30.7295 329.169 30.7295 329.315C30.7295 329.455 30.6823 329.576 30.5879 329.677C30.4967 329.774 30.3649 329.823 30.1924 329.823C30.0166 329.823 29.8831 329.774 29.792 329.677C29.7041 329.576 29.6602 329.455 29.6602 329.315ZM34.2012 335.355C34.416 335.355 34.6146 335.312 34.7969 335.224C34.9792 335.136 35.1289 335.015 35.2461 334.862C35.3633 334.706 35.43 334.529 35.4463 334.33H36.3057C36.2894 334.643 36.1836 334.934 35.9883 335.204C35.7962 335.471 35.5439 335.688 35.2314 335.854C34.9189 336.016 34.5755 336.098 34.2012 336.098C33.804 336.098 33.4574 336.028 33.1611 335.888C32.8682 335.748 32.624 335.556 32.4287 335.312C32.2367 335.067 32.0918 334.787 31.9941 334.472C31.8997 334.153 31.8525 333.816 31.8525 333.461V333.256C31.8525 332.901 31.8997 332.566 31.9941 332.25C32.0918 331.931 32.2367 331.649 32.4287 331.405C32.624 331.161 32.8682 330.969 33.1611 330.829C33.4574 330.689 33.804 330.619 34.2012 330.619C34.6146 330.619 34.9759 330.704 35.2852 330.873C35.5944 331.039 35.8369 331.267 36.0127 331.557C36.1917 331.843 36.2894 332.169 36.3057 332.533H35.4463C35.43 332.315 35.3682 332.118 35.2607 331.942C35.1566 331.767 35.0133 331.627 34.8311 331.522C34.652 331.415 34.4421 331.361 34.2012 331.361C33.9245 331.361 33.6917 331.417 33.5029 331.527C33.3174 331.635 33.1693 331.781 33.0586 331.967C32.9512 332.149 32.873 332.353 32.8242 332.577C32.7786 332.799 32.7559 333.025 32.7559 333.256V333.461C32.7559 333.692 32.7786 333.92 32.8242 334.145C32.8698 334.369 32.9463 334.573 33.0537 334.755C33.1644 334.937 33.3125 335.084 33.498 335.194C33.6868 335.302 33.9212 335.355 34.2012 335.355ZM38.2295 328.5V336H37.3213V328.5H38.2295ZM41.457 330.717L39.1523 333.183L37.8633 334.521L37.79 333.559L38.7129 332.455L40.3535 330.717H41.457ZM40.6318 336L38.7471 333.48L39.2158 332.675L41.6963 336H40.6318ZM44.4844 336.098C44.1165 336.098 43.7829 336.036 43.4834 335.912C43.1872 335.785 42.9316 335.608 42.7168 335.38C42.5052 335.152 42.3424 334.882 42.2285 334.569C42.1146 334.257 42.0576 333.915 42.0576 333.544V333.339C42.0576 332.909 42.1211 332.527 42.248 332.191C42.375 331.853 42.5475 331.566 42.7656 331.332C42.9837 331.098 43.2311 330.92 43.5078 330.8C43.7845 330.679 44.071 330.619 44.3672 330.619C44.7448 330.619 45.0703 330.684 45.3438 330.814C45.6204 330.945 45.8467 331.127 46.0225 331.361C46.1982 331.592 46.3285 331.866 46.4131 332.182C46.4977 332.494 46.54 332.836 46.54 333.207V333.612H42.5947V332.875H45.6367V332.807C45.6237 332.572 45.5749 332.344 45.4902 332.123C45.4089 331.902 45.2786 331.719 45.0996 331.576C44.9206 331.433 44.6764 331.361 44.3672 331.361C44.1621 331.361 43.9733 331.405 43.8008 331.493C43.6283 331.578 43.4801 331.705 43.3564 331.874C43.2327 332.043 43.1367 332.25 43.0684 332.494C43 332.738 42.9658 333.02 42.9658 333.339V333.544C42.9658 333.795 43 334.031 43.0684 334.252C43.14 334.47 43.2425 334.662 43.376 334.828C43.5127 334.994 43.6771 335.124 43.8691 335.219C44.0645 335.313 44.2858 335.36 44.5332 335.36C44.8522 335.36 45.1224 335.295 45.3438 335.165C45.5651 335.035 45.7588 334.861 45.9248 334.643L46.4717 335.077C46.3577 335.25 46.2129 335.414 46.0371 335.57C45.8613 335.727 45.6449 335.854 45.3877 335.951C45.1338 336.049 44.8327 336.098 44.4844 336.098ZM49.8066 330.717V331.41H46.9502V330.717H49.8066ZM47.917 329.433H48.8203V334.691C48.8203 334.87 48.848 335.006 48.9033 335.097C48.9587 335.188 49.0303 335.248 49.1182 335.277C49.2061 335.307 49.3005 335.321 49.4014 335.321C49.4762 335.321 49.5544 335.315 49.6357 335.302C49.7204 335.285 49.7839 335.272 49.8262 335.263L49.8311 336C49.7594 336.023 49.665 336.044 49.5479 336.063C49.4339 336.086 49.2956 336.098 49.1328 336.098C48.9115 336.098 48.708 336.054 48.5225 335.966C48.3369 335.878 48.1888 335.731 48.0781 335.526C47.9707 335.318 47.917 335.038 47.917 334.687V329.433ZM55.915 328.891V336H54.9873V328.891H55.915ZM58.2002 328.891V329.662H52.707V328.891H58.2002ZM60.251 335.453L61.7207 330.717H62.6875L60.5684 336.815C60.5195 336.946 60.4544 337.086 60.373 337.235C60.2949 337.388 60.194 337.533 60.0703 337.67C59.9466 337.807 59.7969 337.917 59.6211 338.002C59.4486 338.09 59.2419 338.134 59.001 338.134C58.9294 338.134 58.8382 338.124 58.7275 338.104C58.6169 338.085 58.5387 338.069 58.4932 338.056L58.4883 337.323C58.5143 337.326 58.555 337.33 58.6104 337.333C58.6689 337.34 58.7096 337.343 58.7324 337.343C58.9375 337.343 59.1117 337.315 59.2549 337.26C59.3981 337.208 59.5186 337.118 59.6162 336.991C59.7171 336.868 59.8034 336.697 59.875 336.479L60.251 335.453ZM59.1719 330.717L60.5439 334.818L60.7783 335.771L60.1289 336.103L58.1855 330.717H59.1719ZM64.4062 331.732V338.031H63.498V330.717H64.3281L64.4062 331.732ZM67.9658 333.314V333.417C67.9658 333.801 67.9202 334.158 67.8291 334.486C67.738 334.812 67.6045 335.095 67.4287 335.336C67.2562 335.577 67.043 335.764 66.7891 335.897C66.5352 336.031 66.2438 336.098 65.915 336.098C65.5798 336.098 65.2835 336.042 65.0264 335.932C64.7692 335.821 64.5511 335.66 64.3721 335.448C64.193 335.237 64.0498 334.983 63.9424 334.687C63.8382 334.39 63.7666 334.057 63.7275 333.686V333.139C63.7666 332.748 63.8398 332.398 63.9473 332.089C64.0547 331.78 64.1963 331.516 64.3721 331.298C64.5511 331.076 64.7676 330.909 65.0215 330.795C65.2754 330.678 65.5684 330.619 65.9004 330.619C66.2324 330.619 66.527 330.684 66.7842 330.814C67.0413 330.941 67.2578 331.124 67.4336 331.361C67.6094 331.599 67.7412 331.884 67.8291 332.216C67.9202 332.545 67.9658 332.911 67.9658 333.314ZM67.0576 333.417V333.314C67.0576 333.051 67.0299 332.803 66.9746 332.572C66.9193 332.338 66.833 332.133 66.7158 331.957C66.6019 331.778 66.4554 331.638 66.2764 331.537C66.0973 331.433 65.8841 331.381 65.6367 331.381C65.4089 331.381 65.2103 331.42 65.041 331.498C64.875 331.576 64.7334 331.682 64.6162 331.815C64.499 331.946 64.403 332.095 64.3281 332.265C64.2565 332.431 64.2028 332.603 64.167 332.782V334.047C64.2321 334.275 64.3232 334.49 64.4404 334.691C64.5576 334.89 64.7139 335.051 64.9092 335.175C65.1045 335.295 65.3503 335.355 65.6465 335.355C65.8906 335.355 66.1006 335.305 66.2764 335.204C66.4554 335.1 66.6019 334.958 66.7158 334.779C66.833 334.6 66.9193 334.395 66.9746 334.164C67.0299 333.93 67.0576 333.681 67.0576 333.417ZM71.3105 336.098C70.9427 336.098 70.609 336.036 70.3096 335.912C70.0133 335.785 69.7578 335.608 69.543 335.38C69.3314 335.152 69.1686 334.882 69.0547 334.569C68.9408 334.257 68.8838 333.915 68.8838 333.544V333.339C68.8838 332.909 68.9473 332.527 69.0742 332.191C69.2012 331.853 69.3737 331.566 69.5918 331.332C69.8099 331.098 70.0573 330.92 70.334 330.8C70.6107 330.679 70.8971 330.619 71.1934 330.619C71.571 330.619 71.8965 330.684 72.1699 330.814C72.4466 330.945 72.6729 331.127 72.8486 331.361C73.0244 331.592 73.1546 331.866 73.2393 332.182C73.3239 332.494 73.3662 332.836 73.3662 333.207V333.612H69.4209V332.875H72.4629V332.807C72.4499 332.572 72.401 332.344 72.3164 332.123C72.235 331.902 72.1048 331.719 71.9258 331.576C71.7467 331.433 71.5026 331.361 71.1934 331.361C70.9883 331.361 70.7995 331.405 70.627 331.493C70.4544 331.578 70.3063 331.705 70.1826 331.874C70.0589 332.043 69.9629 332.25 69.8945 332.494C69.8262 332.738 69.792 333.02 69.792 333.339V333.544C69.792 333.795 69.8262 334.031 69.8945 334.252C69.9661 334.47 70.0687 334.662 70.2021 334.828C70.3389 334.994 70.5033 335.124 70.6953 335.219C70.8906 335.313 71.112 335.36 71.3594 335.36C71.6784 335.36 71.9486 335.295 72.1699 335.165C72.3913 335.035 72.585 334.861 72.751 334.643L73.2979 335.077C73.1839 335.25 73.0391 335.414 72.8633 335.57C72.6875 335.727 72.471 335.854 72.2139 335.951C71.96 336.049 71.6589 336.098 71.3105 336.098ZM74.3818 335.521C74.3818 335.368 74.429 335.24 74.5234 335.136C74.6211 335.028 74.7611 334.975 74.9434 334.975C75.1257 334.975 75.264 335.028 75.3584 335.136C75.4561 335.24 75.5049 335.368 75.5049 335.521C75.5049 335.671 75.4561 335.798 75.3584 335.902C75.264 336.007 75.1257 336.059 74.9434 336.059C74.7611 336.059 74.6211 336.007 74.5234 335.902C74.429 335.798 74.3818 335.671 74.3818 335.521ZM74.3867 331.21C74.3867 331.057 74.4339 330.928 74.5283 330.824C74.626 330.717 74.766 330.663 74.9482 330.663C75.1305 330.663 75.2689 330.717 75.3633 330.824C75.4609 330.928 75.5098 331.057 75.5098 331.21C75.5098 331.36 75.4609 331.487 75.3633 331.591C75.2689 331.695 75.1305 331.747 74.9482 331.747C74.766 331.747 74.626 331.695 74.5283 331.591C74.4339 331.487 74.3867 331.36 74.3867 331.21Z" fill="white"/>
<path opacity="0.33" d="M142.452 328.891V336H141.524V328.891H142.452ZM144.737 328.891V329.662H139.244V328.891H144.737ZM146.637 330.717V336H145.729V330.717H146.637ZM145.66 329.315C145.66 329.169 145.704 329.045 145.792 328.944C145.883 328.843 146.017 328.793 146.192 328.793C146.365 328.793 146.497 328.843 146.588 328.944C146.682 329.045 146.729 329.169 146.729 329.315C146.729 329.455 146.682 329.576 146.588 329.677C146.497 329.774 146.365 329.823 146.192 329.823C146.017 329.823 145.883 329.774 145.792 329.677C145.704 329.576 145.66 329.455 145.66 329.315ZM150.201 335.355C150.416 335.355 150.615 335.312 150.797 335.224C150.979 335.136 151.129 335.015 151.246 334.862C151.363 334.706 151.43 334.529 151.446 334.33H152.306C152.289 334.643 152.184 334.934 151.988 335.204C151.796 335.471 151.544 335.688 151.231 335.854C150.919 336.016 150.576 336.098 150.201 336.098C149.804 336.098 149.457 336.028 149.161 335.888C148.868 335.748 148.624 335.556 148.429 335.312C148.237 335.067 148.092 334.787 147.994 334.472C147.9 334.153 147.853 333.816 147.853 333.461V333.256C147.853 332.901 147.9 332.566 147.994 332.25C148.092 331.931 148.237 331.649 148.429 331.405C148.624 331.161 148.868 330.969 149.161 330.829C149.457 330.689 149.804 330.619 150.201 330.619C150.615 330.619 150.976 330.704 151.285 330.873C151.594 331.039 151.837 331.267 152.013 331.557C152.192 331.843 152.289 332.169 152.306 332.533H151.446C151.43 332.315 151.368 332.118 151.261 331.942C151.157 331.767 151.013 331.627 150.831 331.522C150.652 331.415 150.442 331.361 150.201 331.361C149.924 331.361 149.692 331.417 149.503 331.527C149.317 331.635 149.169 331.781 149.059 331.967C148.951 332.149 148.873 332.353 148.824 332.577C148.779 332.799 148.756 333.025 148.756 333.256V333.461C148.756 333.692 148.779 333.92 148.824 334.145C148.87 334.369 148.946 334.573 149.054 334.755C149.164 334.937 149.312 335.084 149.498 335.194C149.687 335.302 149.921 335.355 150.201 335.355ZM154.229 328.5V336H153.321V328.5H154.229ZM157.457 330.717L155.152 333.183L153.863 334.521L153.79 333.559L154.713 332.455L156.354 330.717H157.457ZM156.632 336L154.747 333.48L155.216 332.675L157.696 336H156.632ZM160.484 336.098C160.117 336.098 159.783 336.036 159.483 335.912C159.187 335.785 158.932 335.608 158.717 335.38C158.505 335.152 158.342 334.882 158.229 334.569C158.115 334.257 158.058 333.915 158.058 333.544V333.339C158.058 332.909 158.121 332.527 158.248 332.191C158.375 331.853 158.548 331.566 158.766 331.332C158.984 331.098 159.231 330.92 159.508 330.8C159.785 330.679 160.071 330.619 160.367 330.619C160.745 330.619 161.07 330.684 161.344 330.814C161.62 330.945 161.847 331.127 162.022 331.361C162.198 331.592 162.328 331.866 162.413 332.182C162.498 332.494 162.54 332.836 162.54 333.207V333.612H158.595V332.875H161.637V332.807C161.624 332.572 161.575 332.344 161.49 332.123C161.409 331.902 161.279 331.719 161.1 331.576C160.921 331.433 160.676 331.361 160.367 331.361C160.162 331.361 159.973 331.405 159.801 331.493C159.628 331.578 159.48 331.705 159.356 331.874C159.233 332.043 159.137 332.25 159.068 332.494C159 332.738 158.966 333.02 158.966 333.339V333.544C158.966 333.795 159 334.031 159.068 334.252C159.14 334.47 159.243 334.662 159.376 334.828C159.513 334.994 159.677 335.124 159.869 335.219C160.064 335.313 160.286 335.36 160.533 335.36C160.852 335.36 161.122 335.295 161.344 335.165C161.565 335.035 161.759 334.861 161.925 334.643L162.472 335.077C162.358 335.25 162.213 335.414 162.037 335.57C161.861 335.727 161.645 335.854 161.388 335.951C161.134 336.049 160.833 336.098 160.484 336.098ZM165.807 330.717V331.41H162.95V330.717H165.807ZM163.917 329.433H164.82V334.691C164.82 334.87 164.848 335.006 164.903 335.097C164.959 335.188 165.03 335.248 165.118 335.277C165.206 335.307 165.3 335.321 165.401 335.321C165.476 335.321 165.554 335.315 165.636 335.302C165.72 335.285 165.784 335.272 165.826 335.263L165.831 336C165.759 336.023 165.665 336.044 165.548 336.063C165.434 336.086 165.296 336.098 165.133 336.098C164.911 336.098 164.708 336.054 164.522 335.966C164.337 335.878 164.189 335.731 164.078 335.526C163.971 335.318 163.917 335.038 163.917 334.687V329.433ZM170.694 336H169.791V330.16C169.791 329.779 169.859 329.459 169.996 329.198C170.136 328.935 170.336 328.736 170.597 328.603C170.857 328.466 171.166 328.397 171.524 328.397C171.629 328.397 171.733 328.404 171.837 328.417C171.944 328.43 172.049 328.45 172.149 328.476L172.101 329.213C172.032 329.197 171.954 329.185 171.866 329.179C171.782 329.172 171.697 329.169 171.612 329.169C171.42 329.169 171.254 329.208 171.114 329.286C170.978 329.361 170.873 329.472 170.802 329.618C170.73 329.765 170.694 329.945 170.694 330.16V336ZM171.817 330.717V331.41H168.956V330.717H171.817ZM172.584 333.417V333.305C172.584 332.924 172.639 332.571 172.75 332.245C172.861 331.916 173.02 331.632 173.229 331.391C173.437 331.146 173.689 330.958 173.985 330.824C174.282 330.688 174.614 330.619 174.981 330.619C175.353 330.619 175.686 330.688 175.982 330.824C176.282 330.958 176.536 331.146 176.744 331.391C176.956 331.632 177.117 331.916 177.228 332.245C177.338 332.571 177.394 332.924 177.394 333.305V333.417C177.394 333.798 177.338 334.151 177.228 334.477C177.117 334.802 176.956 335.087 176.744 335.331C176.536 335.572 176.284 335.761 175.987 335.897C175.694 336.031 175.362 336.098 174.991 336.098C174.62 336.098 174.286 336.031 173.99 335.897C173.694 335.761 173.44 335.572 173.229 335.331C173.02 335.087 172.861 334.802 172.75 334.477C172.639 334.151 172.584 333.798 172.584 333.417ZM173.487 333.305V333.417C173.487 333.681 173.518 333.93 173.58 334.164C173.642 334.395 173.735 334.6 173.858 334.779C173.985 334.958 174.143 335.1 174.332 335.204C174.521 335.305 174.741 335.355 174.991 335.355C175.239 335.355 175.455 335.305 175.641 335.204C175.829 335.1 175.986 334.958 176.109 334.779C176.233 334.6 176.326 334.395 176.388 334.164C176.453 333.93 176.485 333.681 176.485 333.417V333.305C176.485 333.044 176.453 332.799 176.388 332.567C176.326 332.333 176.231 332.126 176.104 331.947C175.981 331.765 175.825 331.622 175.636 331.518C175.45 331.413 175.232 331.361 174.981 331.361C174.734 331.361 174.516 331.413 174.327 331.518C174.142 331.622 173.985 331.765 173.858 331.947C173.735 332.126 173.642 332.333 173.58 332.567C173.518 332.799 173.487 333.044 173.487 333.305ZM179.43 331.547V336H178.526V330.717H179.405L179.43 331.547ZM181.08 330.688L181.075 331.527C181 331.511 180.929 331.501 180.86 331.498C180.795 331.492 180.72 331.488 180.636 331.488C180.427 331.488 180.243 331.521 180.084 331.586C179.924 331.651 179.789 331.742 179.679 331.859C179.568 331.977 179.48 332.117 179.415 332.279C179.353 332.439 179.312 332.615 179.293 332.807L179.039 332.953C179.039 332.634 179.07 332.335 179.132 332.055C179.197 331.775 179.296 331.527 179.43 331.312C179.563 331.094 179.732 330.925 179.938 330.805C180.146 330.681 180.393 330.619 180.68 330.619C180.745 330.619 180.82 330.627 180.904 330.644C180.989 330.657 181.048 330.671 181.08 330.688ZM184.356 335.521C184.356 335.368 184.404 335.24 184.498 335.136C184.596 335.028 184.736 334.975 184.918 334.975C185.1 334.975 185.239 335.028 185.333 335.136C185.431 335.24 185.479 335.368 185.479 335.521C185.479 335.671 185.431 335.798 185.333 335.902C185.239 336.007 185.1 336.059 184.918 336.059C184.736 336.059 184.596 336.007 184.498 335.902C184.404 335.798 184.356 335.671 184.356 335.521ZM184.361 331.21C184.361 331.057 184.409 330.928 184.503 330.824C184.601 330.717 184.741 330.663 184.923 330.663C185.105 330.663 185.243 330.717 185.338 330.824C185.436 330.928 185.484 331.057 185.484 331.21C185.484 331.36 185.436 331.487 185.338 331.591C185.243 331.695 185.105 331.747 184.923 331.747C184.741 331.747 184.601 331.695 184.503 331.591C184.409 331.487 184.361 331.36 184.361 331.21Z" fill="white"/>
<path opacity="0.33" d="M31.6143 380.203C31.6143 380.037 31.5882 379.891 31.5361 379.764C31.4873 379.633 31.3994 379.516 31.2725 379.412C31.1488 379.308 30.9762 379.209 30.7549 379.114C30.5368 379.02 30.2601 378.924 29.9248 378.826C29.5732 378.722 29.2559 378.606 28.9727 378.479C28.6895 378.349 28.4469 378.201 28.2451 378.035C28.0433 377.869 27.8887 377.679 27.7812 377.464C27.6738 377.249 27.6201 377.003 27.6201 376.727C27.6201 376.45 27.6771 376.194 27.791 375.96C27.9049 375.726 28.0677 375.522 28.2793 375.35C28.4941 375.174 28.7497 375.037 29.0459 374.939C29.3421 374.842 29.6725 374.793 30.0371 374.793C30.571 374.793 31.0234 374.896 31.3945 375.101C31.7689 375.302 32.0537 375.568 32.249 375.896C32.4443 376.222 32.542 376.57 32.542 376.941H31.6045C31.6045 376.674 31.5475 376.438 31.4336 376.233C31.3197 376.025 31.1471 375.862 30.916 375.745C30.6849 375.625 30.3919 375.564 30.0371 375.564C29.7018 375.564 29.4251 375.615 29.207 375.716C28.9889 375.817 28.8262 375.953 28.7188 376.126C28.6146 376.299 28.5625 376.495 28.5625 376.717C28.5625 376.867 28.5934 377.003 28.6553 377.127C28.7204 377.247 28.8197 377.36 28.9531 377.464C29.0898 377.568 29.2624 377.664 29.4707 377.752C29.6823 377.84 29.9346 377.924 30.2275 378.006C30.6312 378.12 30.9795 378.247 31.2725 378.387C31.5654 378.527 31.8063 378.685 31.9951 378.86C32.1872 379.033 32.3288 379.23 32.4199 379.451C32.5143 379.669 32.5615 379.917 32.5615 380.193C32.5615 380.483 32.5029 380.745 32.3857 380.979C32.2686 381.214 32.1009 381.414 31.8828 381.58C31.6647 381.746 31.4027 381.875 31.0967 381.966C30.7939 382.054 30.4554 382.098 30.0811 382.098C29.7523 382.098 29.4284 382.052 29.1094 381.961C28.7936 381.87 28.5055 381.733 28.2451 381.551C27.988 381.368 27.7812 381.144 27.625 380.877C27.472 380.607 27.3955 380.294 27.3955 379.939H28.333C28.333 380.184 28.3802 380.394 28.4746 380.569C28.569 380.742 28.6976 380.885 28.8604 380.999C29.0264 381.113 29.2135 381.198 29.4219 381.253C29.6335 381.305 29.8532 381.331 30.0811 381.331C30.4098 381.331 30.6882 381.285 30.916 381.194C31.1439 381.103 31.3164 380.973 31.4336 380.804C31.554 380.634 31.6143 380.434 31.6143 380.203ZM34.5293 377.732V384.031H33.6211V376.717H34.4512L34.5293 377.732ZM38.0889 379.314V379.417C38.0889 379.801 38.0433 380.158 37.9521 380.486C37.861 380.812 37.7275 381.095 37.5518 381.336C37.3792 381.577 37.166 381.764 36.9121 381.897C36.6582 382.031 36.3669 382.098 36.0381 382.098C35.7028 382.098 35.4066 382.042 35.1494 381.932C34.8923 381.821 34.6742 381.66 34.4951 381.448C34.3161 381.237 34.1729 380.983 34.0654 380.687C33.9613 380.39 33.8896 380.057 33.8506 379.686V379.139C33.8896 378.748 33.9629 378.398 34.0703 378.089C34.1777 377.78 34.3193 377.516 34.4951 377.298C34.6742 377.076 34.8906 376.909 35.1445 376.795C35.3984 376.678 35.6914 376.619 36.0234 376.619C36.3555 376.619 36.6501 376.684 36.9072 376.814C37.1644 376.941 37.3809 377.124 37.5566 377.361C37.7324 377.599 37.8643 377.884 37.9521 378.216C38.0433 378.545 38.0889 378.911 38.0889 379.314ZM37.1807 379.417V379.314C37.1807 379.051 37.153 378.803 37.0977 378.572C37.0423 378.338 36.9561 378.133 36.8389 377.957C36.7249 377.778 36.5785 377.638 36.3994 377.537C36.2204 377.433 36.0072 377.381 35.7598 377.381C35.5319 377.381 35.3333 377.42 35.1641 377.498C34.998 377.576 34.8564 377.682 34.7393 377.815C34.6221 377.946 34.526 378.095 34.4512 378.265C34.3796 378.431 34.3258 378.603 34.29 378.782V380.047C34.3551 380.275 34.4463 380.49 34.5635 380.691C34.6807 380.89 34.8369 381.051 35.0322 381.175C35.2275 381.295 35.4733 381.355 35.7695 381.355C36.0137 381.355 36.2236 381.305 36.3994 381.204C36.5785 381.1 36.7249 380.958 36.8389 380.779C36.9561 380.6 37.0423 380.395 37.0977 380.164C37.153 379.93 37.1807 379.681 37.1807 379.417ZM41.4336 382.098C41.0658 382.098 40.7321 382.036 40.4326 381.912C40.1364 381.785 39.8809 381.608 39.666 381.38C39.4544 381.152 39.2917 380.882 39.1777 380.569C39.0638 380.257 39.0068 379.915 39.0068 379.544V379.339C39.0068 378.909 39.0703 378.527 39.1973 378.191C39.3242 377.853 39.4967 377.566 39.7148 377.332C39.9329 377.098 40.1803 376.92 40.457 376.8C40.7337 376.679 41.0202 376.619 41.3164 376.619C41.694 376.619 42.0195 376.684 42.293 376.814C42.5697 376.945 42.7959 377.127 42.9717 377.361C43.1475 377.592 43.2777 377.866 43.3623 378.182C43.4469 378.494 43.4893 378.836 43.4893 379.207V379.612H39.5439V378.875H42.5859V378.807C42.5729 378.572 42.5241 378.344 42.4395 378.123C42.3581 377.902 42.2279 377.719 42.0488 377.576C41.8698 377.433 41.6257 377.361 41.3164 377.361C41.1113 377.361 40.9225 377.405 40.75 377.493C40.5775 377.578 40.4294 377.705 40.3057 377.874C40.182 378.043 40.0859 378.25 40.0176 378.494C39.9492 378.738 39.915 379.02 39.915 379.339V379.544C39.915 379.795 39.9492 380.031 40.0176 380.252C40.0892 380.47 40.1917 380.662 40.3252 380.828C40.4619 380.994 40.6263 381.124 40.8184 381.219C41.0137 381.313 41.235 381.36 41.4824 381.36C41.8014 381.36 42.0716 381.295 42.293 381.165C42.5143 381.035 42.708 380.861 42.874 380.643L43.4209 381.077C43.307 381.25 43.1621 381.414 42.9863 381.57C42.8105 381.727 42.5941 381.854 42.3369 381.951C42.083 382.049 41.7819 382.098 41.4336 382.098ZM46.6582 381.355C46.873 381.355 47.0716 381.312 47.2539 381.224C47.4362 381.136 47.5859 381.015 47.7031 380.862C47.8203 380.706 47.887 380.529 47.9033 380.33H48.7627C48.7464 380.643 48.6406 380.934 48.4453 381.204C48.2533 381.471 48.001 381.688 47.6885 381.854C47.376 382.016 47.0326 382.098 46.6582 382.098C46.2611 382.098 45.9144 382.028 45.6182 381.888C45.3252 381.748 45.0811 381.556 44.8857 381.312C44.6937 381.067 44.5488 380.787 44.4512 380.472C44.3568 380.153 44.3096 379.816 44.3096 379.461V379.256C44.3096 378.901 44.3568 378.566 44.4512 378.25C44.5488 377.931 44.6937 377.649 44.8857 377.405C45.0811 377.161 45.3252 376.969 45.6182 376.829C45.9144 376.689 46.2611 376.619 46.6582 376.619C47.0716 376.619 47.4329 376.704 47.7422 376.873C48.0514 377.039 48.2939 377.267 48.4697 377.557C48.6488 377.843 48.7464 378.169 48.7627 378.533H47.9033C47.887 378.315 47.8252 378.118 47.7178 377.942C47.6136 377.767 47.4704 377.627 47.2881 377.522C47.109 377.415 46.8991 377.361 46.6582 377.361C46.3815 377.361 46.1488 377.417 45.96 377.527C45.7744 377.635 45.6263 377.781 45.5156 377.967C45.4082 378.149 45.3301 378.353 45.2812 378.577C45.2357 378.799 45.2129 379.025 45.2129 379.256V379.461C45.2129 379.692 45.2357 379.92 45.2812 380.145C45.3268 380.369 45.4033 380.573 45.5107 380.755C45.6214 380.937 45.7695 381.084 45.9551 381.194C46.1439 381.302 46.3783 381.355 46.6582 381.355ZM50.7598 376.717V382H49.8516V376.717H50.7598ZM49.7832 375.315C49.7832 375.169 49.8271 375.045 49.915 374.944C50.0062 374.843 50.1396 374.793 50.3154 374.793C50.488 374.793 50.6198 374.843 50.7109 374.944C50.8053 375.045 50.8525 375.169 50.8525 375.315C50.8525 375.455 50.8053 375.576 50.7109 375.677C50.6198 375.774 50.488 375.823 50.3154 375.823C50.1396 375.823 50.0062 375.774 49.915 375.677C49.8271 375.576 49.7832 375.455 49.7832 375.315ZM55.3252 381.097V378.377C55.3252 378.169 55.2829 377.988 55.1982 377.835C55.1169 377.679 54.9932 377.558 54.8271 377.474C54.6611 377.389 54.4561 377.347 54.2119 377.347C53.984 377.347 53.7839 377.386 53.6113 377.464C53.4421 377.542 53.3086 377.645 53.2109 377.771C53.1165 377.898 53.0693 378.035 53.0693 378.182H52.166C52.166 377.993 52.2148 377.806 52.3125 377.62C52.4102 377.435 52.5501 377.267 52.7324 377.117C52.918 376.964 53.1393 376.844 53.3965 376.756C53.6569 376.665 53.9466 376.619 54.2656 376.619C54.6497 376.619 54.9883 376.684 55.2812 376.814C55.5775 376.945 55.8086 377.142 55.9746 377.405C56.1439 377.666 56.2285 377.993 56.2285 378.387V380.848C56.2285 381.023 56.2432 381.211 56.2725 381.409C56.305 381.608 56.3522 381.779 56.4141 381.922V382H55.4717C55.4261 381.896 55.3903 381.757 55.3643 381.585C55.3382 381.409 55.3252 381.246 55.3252 381.097ZM55.4814 378.797L55.4912 379.432H54.5781C54.321 379.432 54.0915 379.453 53.8896 379.495C53.6878 379.534 53.5186 379.594 53.3818 379.676C53.2451 379.757 53.141 379.86 53.0693 379.983C52.9977 380.104 52.9619 380.245 52.9619 380.408C52.9619 380.574 52.9993 380.726 53.0742 380.862C53.1491 380.999 53.2614 381.108 53.4111 381.189C53.5641 381.268 53.7513 381.307 53.9727 381.307C54.2493 381.307 54.4935 381.248 54.7051 381.131C54.9167 381.014 55.0843 380.87 55.208 380.701C55.335 380.532 55.4033 380.368 55.4131 380.208L55.7988 380.643C55.776 380.779 55.7142 380.931 55.6133 381.097C55.5124 381.263 55.3773 381.422 55.208 381.575C55.042 381.725 54.8434 381.85 54.6123 381.951C54.3844 382.049 54.1273 382.098 53.8408 382.098C53.4827 382.098 53.1686 382.028 52.8984 381.888C52.6315 381.748 52.4232 381.561 52.2734 381.326C52.127 381.089 52.0537 380.823 52.0537 380.53C52.0537 380.247 52.109 379.998 52.2197 379.783C52.3304 379.565 52.4899 379.384 52.6982 379.241C52.9066 379.095 53.1572 378.984 53.4502 378.909C53.7432 378.834 54.0703 378.797 54.4316 378.797H55.4814ZM58.6309 374.5V382H57.7227V374.5H58.6309ZM63.4648 377.547V382H62.5615V376.717H63.4404L63.4648 377.547ZM65.1152 376.688L65.1104 377.527C65.0355 377.511 64.9639 377.501 64.8955 377.498C64.8304 377.492 64.7555 377.488 64.6709 377.488C64.4626 377.488 64.2786 377.521 64.1191 377.586C63.9596 377.651 63.8245 377.742 63.7139 377.859C63.6032 377.977 63.5153 378.117 63.4502 378.279C63.3883 378.439 63.3477 378.615 63.3281 378.807L63.0742 378.953C63.0742 378.634 63.1051 378.335 63.167 378.055C63.2321 377.775 63.3314 377.527 63.4648 377.312C63.5983 377.094 63.7676 376.925 63.9727 376.805C64.181 376.681 64.4284 376.619 64.7148 376.619C64.7799 376.619 64.8548 376.627 64.9395 376.644C65.0241 376.657 65.0827 376.671 65.1152 376.688ZM68.0449 382.098C67.6771 382.098 67.3434 382.036 67.0439 381.912C66.7477 381.785 66.4922 381.608 66.2773 381.38C66.0658 381.152 65.903 380.882 65.7891 380.569C65.6751 380.257 65.6182 379.915 65.6182 379.544V379.339C65.6182 378.909 65.6816 378.527 65.8086 378.191C65.9355 377.853 66.1081 377.566 66.3262 377.332C66.5443 377.098 66.7917 376.92 67.0684 376.8C67.3451 376.679 67.6315 376.619 67.9277 376.619C68.3053 376.619 68.6309 376.684 68.9043 376.814C69.181 376.945 69.4072 377.127 69.583 377.361C69.7588 377.592 69.889 377.866 69.9736 378.182C70.0583 378.494 70.1006 378.836 70.1006 379.207V379.612H66.1553V378.875H69.1973V378.807C69.1842 378.572 69.1354 378.344 69.0508 378.123C68.9694 377.902 68.8392 377.719 68.6602 377.576C68.4811 377.433 68.237 377.361 67.9277 377.361C67.7227 377.361 67.5339 377.405 67.3613 377.493C67.1888 377.578 67.0407 377.705 66.917 377.874C66.7933 378.043 66.6973 378.25 66.6289 378.494C66.5605 378.738 66.5264 379.02 66.5264 379.339V379.544C66.5264 379.795 66.5605 380.031 66.6289 380.252C66.7005 380.47 66.8031 380.662 66.9365 380.828C67.0732 380.994 67.2376 381.124 67.4297 381.219C67.625 381.313 67.8464 381.36 68.0938 381.36C68.4128 381.36 68.6829 381.295 68.9043 381.165C69.1257 381.035 69.3193 380.861 69.4854 380.643L70.0322 381.077C69.9183 381.25 69.7734 381.414 69.5977 381.57C69.4219 381.727 69.2054 381.854 68.9482 381.951C68.6943 382.049 68.3932 382.098 68.0449 382.098ZM74.4805 384.031V377.732L74.5586 376.717H75.3887V384.031H74.4805ZM70.9307 379.417V379.314C70.9307 378.911 70.9779 378.545 71.0723 378.216C71.1667 377.884 71.305 377.599 71.4873 377.361C71.6696 377.124 71.8893 376.941 72.1465 376.814C72.4069 376.684 72.7031 376.619 73.0352 376.619C73.3672 376.619 73.6585 376.678 73.9092 376.795C74.1631 376.909 74.3779 377.076 74.5537 377.298C74.7327 377.516 74.8743 377.78 74.9785 378.089C75.0827 378.398 75.1543 378.748 75.1934 379.139V379.588C75.1576 379.975 75.0876 380.324 74.9834 380.633C74.8792 380.942 74.7376 381.206 74.5586 381.424C74.3828 381.642 74.1663 381.81 73.9092 381.927C73.6553 382.041 73.3607 382.098 73.0254 382.098C72.6999 382.098 72.4069 382.031 72.1465 381.897C71.8893 381.764 71.6696 381.577 71.4873 381.336C71.3083 381.095 71.1699 380.812 71.0723 380.486C70.9779 380.158 70.9307 379.801 70.9307 379.417ZM71.8389 379.314V379.417C71.8389 379.681 71.8665 379.93 71.9219 380.164C71.9772 380.395 72.0618 380.6 72.1758 380.779C72.293 380.958 72.4395 381.1 72.6152 381.204C72.7943 381.305 73.0059 381.355 73.25 381.355C73.5495 381.355 73.7985 381.29 73.9971 381.16C74.1989 381.03 74.36 380.859 74.4805 380.647C74.6009 380.433 74.6937 380.203 74.7588 379.959V378.782C74.723 378.603 74.666 378.429 74.5879 378.26C74.513 378.09 74.4154 377.939 74.2949 377.806C74.1745 377.669 74.028 377.562 73.8555 377.483C73.6862 377.402 73.4876 377.361 73.2598 377.361C73.0124 377.361 72.7992 377.413 72.6201 377.518C72.4411 377.622 72.293 377.765 72.1758 377.947C72.0618 378.126 71.9772 378.333 71.9219 378.567C71.8665 378.802 71.8389 379.051 71.8389 379.314ZM80.0713 380.779V376.717H80.9795V382H80.1152L80.0713 380.779ZM80.2422 379.666L80.6182 379.656C80.6182 380.008 80.5807 380.333 80.5059 380.633C80.4342 380.929 80.3171 381.186 80.1543 381.404C79.9915 381.622 79.7783 381.793 79.5146 381.917C79.251 382.037 78.9303 382.098 78.5527 382.098C78.2956 382.098 78.0596 382.06 77.8447 381.985C77.6331 381.91 77.4508 381.795 77.2979 381.639C77.1449 381.482 77.026 381.279 76.9414 381.028C76.86 380.778 76.8193 380.477 76.8193 380.125V376.717H77.7227V380.135C77.7227 380.372 77.7487 380.569 77.8008 380.726C77.8561 380.879 77.9294 381.001 78.0205 381.092C78.1149 381.18 78.2191 381.242 78.333 381.277C78.4502 381.313 78.5706 381.331 78.6943 381.331C79.0785 381.331 79.3828 381.258 79.6074 381.111C79.832 380.962 79.9932 380.761 80.0908 380.511C80.1917 380.257 80.2422 379.975 80.2422 379.666ZM84.5488 382.098C84.181 382.098 83.8473 382.036 83.5479 381.912C83.2516 381.785 82.9961 381.608 82.7812 381.38C82.5697 381.152 82.4069 380.882 82.293 380.569C82.179 380.257 82.1221 379.915 82.1221 379.544V379.339C82.1221 378.909 82.1855 378.527 82.3125 378.191C82.4395 377.853 82.612 377.566 82.8301 377.332C83.0482 377.098 83.2956 376.92 83.5723 376.8C83.849 376.679 84.1354 376.619 84.4316 376.619C84.8092 376.619 85.1348 376.684 85.4082 376.814C85.6849 376.945 85.9111 377.127 86.0869 377.361C86.2627 377.592 86.3929 377.866 86.4775 378.182C86.5622 378.494 86.6045 378.836 86.6045 379.207V379.612H82.6592V378.875H85.7012V378.807C85.6882 378.572 85.6393 378.344 85.5547 378.123C85.4733 377.902 85.3431 377.719 85.1641 377.576C84.985 377.433 84.7409 377.361 84.4316 377.361C84.2266 377.361 84.0378 377.405 83.8652 377.493C83.6927 377.578 83.5446 377.705 83.4209 377.874C83.2972 378.043 83.2012 378.25 83.1328 378.494C83.0645 378.738 83.0303 379.02 83.0303 379.339V379.544C83.0303 379.795 83.0645 380.031 83.1328 380.252C83.2044 380.47 83.307 380.662 83.4404 380.828C83.5771 380.994 83.7415 381.124 83.9336 381.219C84.1289 381.313 84.3503 381.36 84.5977 381.36C84.9167 381.36 85.1868 381.295 85.4082 381.165C85.6296 381.035 85.8232 380.861 85.9893 380.643L86.5361 381.077C86.4222 381.25 86.2773 381.414 86.1016 381.57C85.9258 381.727 85.7093 381.854 85.4521 381.951C85.1982 382.049 84.8971 382.098 84.5488 382.098ZM90.7354 380.599C90.7354 380.468 90.7061 380.348 90.6475 380.237C90.5921 380.123 90.4766 380.021 90.3008 379.93C90.1283 379.835 89.8678 379.754 89.5195 379.686C89.2266 379.624 88.9613 379.55 88.7236 379.466C88.4893 379.381 88.2891 379.279 88.123 379.158C87.9603 379.038 87.835 378.896 87.7471 378.733C87.6592 378.571 87.6152 378.38 87.6152 378.162C87.6152 377.954 87.6608 377.757 87.752 377.571C87.8464 377.386 87.9782 377.221 88.1475 377.078C88.32 376.935 88.5267 376.823 88.7676 376.741C89.0085 376.66 89.277 376.619 89.5732 376.619C89.9964 376.619 90.3577 376.694 90.6572 376.844C90.9567 376.993 91.1862 377.194 91.3457 377.444C91.5052 377.692 91.585 377.967 91.585 378.27H90.6816C90.6816 378.123 90.6377 377.981 90.5498 377.845C90.4652 377.705 90.3398 377.589 90.1738 377.498C90.0111 377.407 89.8109 377.361 89.5732 377.361C89.3226 377.361 89.1191 377.4 88.9629 377.479C88.8099 377.553 88.6976 377.649 88.626 377.767C88.5576 377.884 88.5234 378.007 88.5234 378.138C88.5234 378.235 88.5397 378.323 88.5723 378.401C88.6081 378.476 88.6699 378.546 88.7578 378.611C88.8457 378.673 88.9694 378.732 89.1289 378.787C89.2884 378.842 89.4919 378.898 89.7393 378.953C90.1722 379.051 90.5286 379.168 90.8086 379.305C91.0885 379.441 91.2969 379.609 91.4336 379.808C91.5703 380.006 91.6387 380.247 91.6387 380.53C91.6387 380.761 91.5898 380.973 91.4922 381.165C91.3978 381.357 91.2594 381.523 91.0771 381.663C90.8981 381.8 90.6833 381.907 90.4326 381.985C90.1852 382.06 89.9069 382.098 89.5977 382.098C89.1322 382.098 88.7383 382.015 88.416 381.849C88.0938 381.683 87.8496 381.468 87.6836 381.204C87.5176 380.94 87.4346 380.662 87.4346 380.369H88.3428C88.3558 380.617 88.4274 380.813 88.5576 380.96C88.6878 381.103 88.8473 381.206 89.0361 381.268C89.2249 381.326 89.4121 381.355 89.5977 381.355C89.8451 381.355 90.0518 381.323 90.2178 381.258C90.387 381.193 90.5156 381.103 90.6035 380.989C90.6914 380.875 90.7354 380.745 90.7354 380.599ZM95.0371 376.717V377.41H92.1807V376.717H95.0371ZM93.1475 375.433H94.0508V380.691C94.0508 380.87 94.0785 381.006 94.1338 381.097C94.1891 381.188 94.2607 381.248 94.3486 381.277C94.4365 381.307 94.5309 381.321 94.6318 381.321C94.7067 381.321 94.7848 381.315 94.8662 381.302C94.9508 381.285 95.0143 381.272 95.0566 381.263L95.0615 382C94.9899 382.023 94.8955 382.044 94.7783 382.063C94.6644 382.086 94.526 382.098 94.3633 382.098C94.1419 382.098 93.9385 382.054 93.7529 381.966C93.5674 381.878 93.4193 381.731 93.3086 381.526C93.2012 381.318 93.1475 381.038 93.1475 380.687V375.433ZM98.0596 379.998H97.1514C97.1546 379.686 97.1823 379.43 97.2344 379.231C97.2897 379.03 97.3792 378.846 97.5029 378.68C97.6266 378.514 97.791 378.325 97.9961 378.113C98.1458 377.96 98.2826 377.817 98.4062 377.684C98.5332 377.547 98.6357 377.4 98.7139 377.244C98.792 377.085 98.8311 376.894 98.8311 376.673C98.8311 376.448 98.7904 376.255 98.709 376.092C98.6309 375.929 98.5137 375.804 98.3574 375.716C98.2044 375.628 98.014 375.584 97.7861 375.584C97.5973 375.584 97.4183 375.618 97.249 375.687C97.0798 375.755 96.943 375.861 96.8389 376.004C96.7347 376.144 96.681 376.328 96.6777 376.556H95.7744C95.7809 376.188 95.8721 375.872 96.0479 375.608C96.2269 375.345 96.4678 375.143 96.7705 375.003C97.0732 374.863 97.4118 374.793 97.7861 374.793C98.1995 374.793 98.5511 374.868 98.8408 375.018C99.1338 375.167 99.3568 375.382 99.5098 375.662C99.6628 375.939 99.7393 376.268 99.7393 376.648C99.7393 376.941 99.679 377.212 99.5586 377.459C99.4414 377.703 99.29 377.933 99.1045 378.147C98.9189 378.362 98.722 378.567 98.5137 378.763C98.3346 378.929 98.2142 379.116 98.1523 379.324C98.0905 379.533 98.0596 379.757 98.0596 379.998ZM97.1123 381.546C97.1123 381.399 97.1579 381.276 97.249 381.175C97.3402 381.074 97.472 381.023 97.6445 381.023C97.8203 381.023 97.9538 381.074 98.0449 381.175C98.1361 381.276 98.1816 381.399 98.1816 381.546C98.1816 381.686 98.1361 381.806 98.0449 381.907C97.9538 382.008 97.8203 382.059 97.6445 382.059C97.472 382.059 97.3402 382.008 97.249 381.907C97.1579 381.806 97.1123 381.686 97.1123 381.546Z" fill="white"/>
</svg>
