<svg width="55" height="34" viewBox="0 0 55 34" fill="none" xmlns="http://www.w3.org/2000/svg">
<g filter="url(#filter0_d_4008_498)">
<mask id="path-1-outside-1_4008_498" maskUnits="userSpaceOnUse" x="4" y="-0.312" width="47" height="26" fill="black">
<rect fill="white" x="4" y="-0.312" width="47" height="26"/>
<path d="M13.072 23.992C12.752 23.992 12.3147 23.8747 11.76 23.64C11.2053 23.384 10.64 23.064 10.064 22.68C9.488 22.2747 8.99733 21.8587 8.592 21.432C8.18667 20.984 7.984 20.5573 7.984 20.152C7.984 19.9173 7.99467 19.672 8.016 19.416C8.03733 19.16 8.06933 18.8293 8.112 18.424C8.15467 17.9973 8.18667 17.432 8.208 16.728C8.22933 16.024 8.24 15.1067 8.24 13.976C8.24 13.5493 8.24 13.1013 8.24 12.632C8.24 12.1627 8.22933 11.672 8.208 11.16H7.632L6 9.016L6.224 8.504C7.35467 8.376 8.06933 8.03467 8.368 7.48C8.66667 6.92533 8.816 6.08267 8.816 4.952L9.36 4.76L11.312 6.232C11.312 6.616 11.312 6.98933 11.312 7.352C11.312 7.71467 11.312 8.07733 11.312 8.44H14.032L15.632 10.68L15.408 11.16H11.344C11.344 11.928 11.344 12.664 11.344 13.368C11.344 14.072 11.344 14.744 11.344 15.384C11.344 16.6213 11.3227 17.5707 11.28 18.232C11.2587 18.8933 11.2267 19.384 11.184 19.704C11.1413 20.024 11.12 20.3227 11.12 20.6C11.12 21.0267 11.344 21.24 11.792 21.24C12.176 21.24 12.592 21.144 13.04 20.952C13.488 20.7387 13.904 20.4827 14.288 20.184H14.736L16.24 22.68C15.9413 23.0427 15.472 23.352 14.832 23.608C14.192 23.864 13.6053 23.992 13.072 23.992Z"/>
<path d="M20.6423 6.296L18.5303 4.024V3.704C19.1063 2.936 19.8849 2.264 20.8663 1.688L22.9783 3.896L22.9463 4.28C22.5196 4.57867 22.1143 4.90933 21.7303 5.272C21.3676 5.63467 21.0049 5.976 20.6423 6.296ZM23.4902 24.312C22.1249 23.8 21.0689 23.3413 20.3223 22.936C19.5969 22.5093 19.2343 22.1253 19.2343 21.784C19.2343 21.4853 19.2662 21.0267 19.3302 20.408C19.4156 19.768 19.4583 19.1493 19.4583 18.552V13.976C19.4583 13.4213 19.4796 12.9093 19.5223 12.44C19.5863 11.9493 19.6823 11.5227 19.8103 11.16H18.7543L17.0583 8.984L17.2823 8.44H21.3783L23.2343 10.936C22.9783 11.2773 22.8076 11.704 22.7222 12.216C22.6582 12.728 22.6263 13.3787 22.6263 14.168V18.904C22.6263 19.672 22.5942 20.3547 22.5303 20.952C22.4663 21.528 22.4342 21.9653 22.4342 22.264C22.4342 22.4773 22.5089 22.648 22.6583 22.776C22.8289 22.8827 23.2343 23.1067 23.8743 23.448L23.4902 24.312Z"/>
<path d="M35.0505 19.288L37.7385 21.016C37.3118 22.0187 36.6932 22.7867 35.8825 23.32C35.0932 23.8533 34.1972 24.12 33.1945 24.12C32.5545 24.12 31.8718 23.9813 31.1465 23.704C30.4212 23.4053 29.7385 23.032 29.0985 22.584C28.4585 22.136 27.9252 21.6667 27.4985 21.176C27.0932 20.6853 26.8905 20.2267 26.8905 19.8C26.8905 19.5227 26.8905 19.096 26.8905 18.52C26.9118 17.944 26.9225 17.3467 26.9225 16.728C26.9438 16.088 26.9545 15.5547 26.9545 15.128V12.504C26.9545 11.096 27.3812 10.0293 28.2345 9.304C29.0878 8.55733 30.2292 8.184 31.6585 8.184C32.1065 8.184 32.6292 8.32267 33.2265 8.6C33.8238 8.856 34.4105 9.208 34.9865 9.656C35.5625 10.0827 36.0425 10.5627 36.4265 11.096C36.8105 11.608 37.0025 12.12 37.0025 12.632C37.0025 13.1867 36.9812 13.6773 36.9385 14.104C36.8958 14.5093 36.8425 14.8827 36.7785 15.224L33.4825 14.584C33.6532 13.56 33.7385 12.664 33.7385 11.896C33.7385 11.5333 33.6638 11.288 33.5145 11.16C33.3865 11.032 33.1732 10.968 32.8745 10.968C31.0398 10.968 30.1225 11.8853 30.1225 13.72V16.28C30.1225 17.6453 30.1012 18.648 30.0585 19.288C30.0372 19.9067 30.0265 20.3973 30.0265 20.76C30.0265 20.9947 30.1332 21.176 30.3465 21.304C30.5598 21.432 30.8265 21.496 31.1465 21.496C31.9358 21.496 32.6078 21.336 33.1625 21.016C33.7172 20.6747 34.2185 20.1307 34.6665 19.384L35.0505 19.288Z"/>
<path d="M41.3448 23.672L39.4888 20.888C39.8088 20.3547 40.2568 19.6507 40.8328 18.776C41.4301 17.9013 42.0594 16.9733 42.7208 15.992C43.4034 14.9893 44.0434 14.04 44.6408 13.144C45.2594 12.248 45.7501 11.5227 46.1128 10.968H45.5688C44.5234 10.968 43.6914 11.032 43.0728 11.16C42.4754 11.288 41.9848 11.5227 41.6008 11.864H41.0568L39.1048 8.984L39.3608 8.44H47.1688L49.2488 11.288C49.0568 11.608 48.7581 12.0773 48.3528 12.696C47.9688 13.3147 47.5208 14.0187 47.0088 14.808C46.5181 15.576 46.0061 16.3653 45.4728 17.176C44.9608 17.9653 44.4701 18.712 44.0008 19.416C43.5528 20.0987 43.1901 20.664 42.9128 21.112H43.1048C43.7234 21.1333 44.5021 21.1333 45.4408 21.112C46.4008 21.0693 47.3394 20.9733 48.2568 20.824L49.7928 23.128L49.5368 23.672H41.3448Z"/>
</mask>
<path d="M13.072 23.992C12.752 23.992 12.3147 23.8747 11.76 23.64C11.2053 23.384 10.64 23.064 10.064 22.68C9.488 22.2747 8.99733 21.8587 8.592 21.432C8.18667 20.984 7.984 20.5573 7.984 20.152C7.984 19.9173 7.99467 19.672 8.016 19.416C8.03733 19.16 8.06933 18.8293 8.112 18.424C8.15467 17.9973 8.18667 17.432 8.208 16.728C8.22933 16.024 8.24 15.1067 8.24 13.976C8.24 13.5493 8.24 13.1013 8.24 12.632C8.24 12.1627 8.22933 11.672 8.208 11.16H7.632L6 9.016L6.224 8.504C7.35467 8.376 8.06933 8.03467 8.368 7.48C8.66667 6.92533 8.816 6.08267 8.816 4.952L9.36 4.76L11.312 6.232C11.312 6.616 11.312 6.98933 11.312 7.352C11.312 7.71467 11.312 8.07733 11.312 8.44H14.032L15.632 10.68L15.408 11.16H11.344C11.344 11.928 11.344 12.664 11.344 13.368C11.344 14.072 11.344 14.744 11.344 15.384C11.344 16.6213 11.3227 17.5707 11.28 18.232C11.2587 18.8933 11.2267 19.384 11.184 19.704C11.1413 20.024 11.12 20.3227 11.12 20.6C11.12 21.0267 11.344 21.24 11.792 21.24C12.176 21.24 12.592 21.144 13.04 20.952C13.488 20.7387 13.904 20.4827 14.288 20.184H14.736L16.24 22.68C15.9413 23.0427 15.472 23.352 14.832 23.608C14.192 23.864 13.6053 23.992 13.072 23.992Z" fill="#0E464F"/>
<path d="M20.6423 6.296L18.5303 4.024V3.704C19.1063 2.936 19.8849 2.264 20.8663 1.688L22.9783 3.896L22.9463 4.28C22.5196 4.57867 22.1143 4.90933 21.7303 5.272C21.3676 5.63467 21.0049 5.976 20.6423 6.296ZM23.4902 24.312C22.1249 23.8 21.0689 23.3413 20.3223 22.936C19.5969 22.5093 19.2343 22.1253 19.2343 21.784C19.2343 21.4853 19.2662 21.0267 19.3302 20.408C19.4156 19.768 19.4583 19.1493 19.4583 18.552V13.976C19.4583 13.4213 19.4796 12.9093 19.5223 12.44C19.5863 11.9493 19.6823 11.5227 19.8103 11.16H18.7543L17.0583 8.984L17.2823 8.44H21.3783L23.2343 10.936C22.9783 11.2773 22.8076 11.704 22.7222 12.216C22.6582 12.728 22.6263 13.3787 22.6263 14.168V18.904C22.6263 19.672 22.5942 20.3547 22.5303 20.952C22.4663 21.528 22.4342 21.9653 22.4342 22.264C22.4342 22.4773 22.5089 22.648 22.6583 22.776C22.8289 22.8827 23.2343 23.1067 23.8743 23.448L23.4902 24.312Z" fill="#0E464F"/>
<path d="M35.0505 19.288L37.7385 21.016C37.3118 22.0187 36.6932 22.7867 35.8825 23.32C35.0932 23.8533 34.1972 24.12 33.1945 24.12C32.5545 24.12 31.8718 23.9813 31.1465 23.704C30.4212 23.4053 29.7385 23.032 29.0985 22.584C28.4585 22.136 27.9252 21.6667 27.4985 21.176C27.0932 20.6853 26.8905 20.2267 26.8905 19.8C26.8905 19.5227 26.8905 19.096 26.8905 18.52C26.9118 17.944 26.9225 17.3467 26.9225 16.728C26.9438 16.088 26.9545 15.5547 26.9545 15.128V12.504C26.9545 11.096 27.3812 10.0293 28.2345 9.304C29.0878 8.55733 30.2292 8.184 31.6585 8.184C32.1065 8.184 32.6292 8.32267 33.2265 8.6C33.8238 8.856 34.4105 9.208 34.9865 9.656C35.5625 10.0827 36.0425 10.5627 36.4265 11.096C36.8105 11.608 37.0025 12.12 37.0025 12.632C37.0025 13.1867 36.9812 13.6773 36.9385 14.104C36.8958 14.5093 36.8425 14.8827 36.7785 15.224L33.4825 14.584C33.6532 13.56 33.7385 12.664 33.7385 11.896C33.7385 11.5333 33.6638 11.288 33.5145 11.16C33.3865 11.032 33.1732 10.968 32.8745 10.968C31.0398 10.968 30.1225 11.8853 30.1225 13.72V16.28C30.1225 17.6453 30.1012 18.648 30.0585 19.288C30.0372 19.9067 30.0265 20.3973 30.0265 20.76C30.0265 20.9947 30.1332 21.176 30.3465 21.304C30.5598 21.432 30.8265 21.496 31.1465 21.496C31.9358 21.496 32.6078 21.336 33.1625 21.016C33.7172 20.6747 34.2185 20.1307 34.6665 19.384L35.0505 19.288Z" fill="#0E464F"/>
<path d="M41.3448 23.672L39.4888 20.888C39.8088 20.3547 40.2568 19.6507 40.8328 18.776C41.4301 17.9013 42.0594 16.9733 42.7208 15.992C43.4034 14.9893 44.0434 14.04 44.6408 13.144C45.2594 12.248 45.7501 11.5227 46.1128 10.968H45.5688C44.5234 10.968 43.6914 11.032 43.0728 11.16C42.4754 11.288 41.9848 11.5227 41.6008 11.864H41.0568L39.1048 8.984L39.3608 8.44H47.1688L49.2488 11.288C49.0568 11.608 48.7581 12.0773 48.3528 12.696C47.9688 13.3147 47.5208 14.0187 47.0088 14.808C46.5181 15.576 46.0061 16.3653 45.4728 17.176C44.9608 17.9653 44.4701 18.712 44.0008 19.416C43.5528 20.0987 43.1901 20.664 42.9128 21.112H43.1048C43.7234 21.1333 44.5021 21.1333 45.4408 21.112C46.4008 21.0693 47.3394 20.9733 48.2568 20.824L49.7928 23.128L49.5368 23.672H41.3448Z" fill="#0E464F"/>
<path d="M13.072 23.992C12.752 23.992 12.3147 23.8747 11.76 23.64C11.2053 23.384 10.64 23.064 10.064 22.68C9.488 22.2747 8.99733 21.8587 8.592 21.432C8.18667 20.984 7.984 20.5573 7.984 20.152C7.984 19.9173 7.99467 19.672 8.016 19.416C8.03733 19.16 8.06933 18.8293 8.112 18.424C8.15467 17.9973 8.18667 17.432 8.208 16.728C8.22933 16.024 8.24 15.1067 8.24 13.976C8.24 13.5493 8.24 13.1013 8.24 12.632C8.24 12.1627 8.22933 11.672 8.208 11.16H7.632L6 9.016L6.224 8.504C7.35467 8.376 8.06933 8.03467 8.368 7.48C8.66667 6.92533 8.816 6.08267 8.816 4.952L9.36 4.76L11.312 6.232C11.312 6.616 11.312 6.98933 11.312 7.352C11.312 7.71467 11.312 8.07733 11.312 8.44H14.032L15.632 10.68L15.408 11.16H11.344C11.344 11.928 11.344 12.664 11.344 13.368C11.344 14.072 11.344 14.744 11.344 15.384C11.344 16.6213 11.3227 17.5707 11.28 18.232C11.2587 18.8933 11.2267 19.384 11.184 19.704C11.1413 20.024 11.12 20.3227 11.12 20.6C11.12 21.0267 11.344 21.24 11.792 21.24C12.176 21.24 12.592 21.144 13.04 20.952C13.488 20.7387 13.904 20.4827 14.288 20.184H14.736L16.24 22.68C15.9413 23.0427 15.472 23.352 14.832 23.608C14.192 23.864 13.6053 23.992 13.072 23.992Z" stroke="white" stroke-width="2" mask="url(#path-1-outside-1_4008_498)"/>
<path d="M20.6423 6.296L18.5303 4.024V3.704C19.1063 2.936 19.8849 2.264 20.8663 1.688L22.9783 3.896L22.9463 4.28C22.5196 4.57867 22.1143 4.90933 21.7303 5.272C21.3676 5.63467 21.0049 5.976 20.6423 6.296ZM23.4902 24.312C22.1249 23.8 21.0689 23.3413 20.3223 22.936C19.5969 22.5093 19.2343 22.1253 19.2343 21.784C19.2343 21.4853 19.2662 21.0267 19.3302 20.408C19.4156 19.768 19.4583 19.1493 19.4583 18.552V13.976C19.4583 13.4213 19.4796 12.9093 19.5223 12.44C19.5863 11.9493 19.6823 11.5227 19.8103 11.16H18.7543L17.0583 8.984L17.2823 8.44H21.3783L23.2343 10.936C22.9783 11.2773 22.8076 11.704 22.7222 12.216C22.6582 12.728 22.6263 13.3787 22.6263 14.168V18.904C22.6263 19.672 22.5942 20.3547 22.5303 20.952C22.4663 21.528 22.4342 21.9653 22.4342 22.264C22.4342 22.4773 22.5089 22.648 22.6583 22.776C22.8289 22.8827 23.2343 23.1067 23.8743 23.448L23.4902 24.312Z" stroke="white" stroke-width="2" mask="url(#path-1-outside-1_4008_498)"/>
<path d="M35.0505 19.288L37.7385 21.016C37.3118 22.0187 36.6932 22.7867 35.8825 23.32C35.0932 23.8533 34.1972 24.12 33.1945 24.12C32.5545 24.12 31.8718 23.9813 31.1465 23.704C30.4212 23.4053 29.7385 23.032 29.0985 22.584C28.4585 22.136 27.9252 21.6667 27.4985 21.176C27.0932 20.6853 26.8905 20.2267 26.8905 19.8C26.8905 19.5227 26.8905 19.096 26.8905 18.52C26.9118 17.944 26.9225 17.3467 26.9225 16.728C26.9438 16.088 26.9545 15.5547 26.9545 15.128V12.504C26.9545 11.096 27.3812 10.0293 28.2345 9.304C29.0878 8.55733 30.2292 8.184 31.6585 8.184C32.1065 8.184 32.6292 8.32267 33.2265 8.6C33.8238 8.856 34.4105 9.208 34.9865 9.656C35.5625 10.0827 36.0425 10.5627 36.4265 11.096C36.8105 11.608 37.0025 12.12 37.0025 12.632C37.0025 13.1867 36.9812 13.6773 36.9385 14.104C36.8958 14.5093 36.8425 14.8827 36.7785 15.224L33.4825 14.584C33.6532 13.56 33.7385 12.664 33.7385 11.896C33.7385 11.5333 33.6638 11.288 33.5145 11.16C33.3865 11.032 33.1732 10.968 32.8745 10.968C31.0398 10.968 30.1225 11.8853 30.1225 13.72V16.28C30.1225 17.6453 30.1012 18.648 30.0585 19.288C30.0372 19.9067 30.0265 20.3973 30.0265 20.76C30.0265 20.9947 30.1332 21.176 30.3465 21.304C30.5598 21.432 30.8265 21.496 31.1465 21.496C31.9358 21.496 32.6078 21.336 33.1625 21.016C33.7172 20.6747 34.2185 20.1307 34.6665 19.384L35.0505 19.288Z" stroke="white" stroke-width="2" mask="url(#path-1-outside-1_4008_498)"/>
<path d="M41.3448 23.672L39.4888 20.888C39.8088 20.3547 40.2568 19.6507 40.8328 18.776C41.4301 17.9013 42.0594 16.9733 42.7208 15.992C43.4034 14.9893 44.0434 14.04 44.6408 13.144C45.2594 12.248 45.7501 11.5227 46.1128 10.968H45.5688C44.5234 10.968 43.6914 11.032 43.0728 11.16C42.4754 11.288 41.9848 11.5227 41.6008 11.864H41.0568L39.1048 8.984L39.3608 8.44H47.1688L49.2488 11.288C49.0568 11.608 48.7581 12.0773 48.3528 12.696C47.9688 13.3147 47.5208 14.0187 47.0088 14.808C46.5181 15.576 46.0061 16.3653 45.4728 17.176C44.9608 17.9653 44.4701 18.712 44.0008 19.416C43.5528 20.0987 43.1901 20.664 42.9128 21.112H43.1048C43.7234 21.1333 44.5021 21.1333 45.4408 21.112C46.4008 21.0693 47.3394 20.9733 48.2568 20.824L49.7928 23.128L49.5368 23.672H41.3448Z" stroke="white" stroke-width="2" mask="url(#path-1-outside-1_4008_498)"/>
</g>
<defs>
<filter id="filter0_d_4008_498" x="0.848145" y="0.425209" width="54.0898" height="33.154" filterUnits="userSpaceOnUse" color-interpolation-filters="sRGB">
<feFlood flood-opacity="0" result="BackgroundImageFix"/>
<feColorMatrix in="SourceAlpha" type="matrix" values="0 0 0 0 0 0 0 0 0 0 0 0 0 0 0 0 0 0 127 0" result="hardAlpha"/>
<feOffset dy="4"/>
<feGaussianBlur stdDeviation="2"/>
<feComposite in2="hardAlpha" operator="out"/>
<feColorMatrix type="matrix" values="0 0 0 0 0 0 0 0 0 0 0 0 0 0 0 0 0 0 0.25 0"/>
<feBlend mode="normal" in2="BackgroundImageFix" result="effect1_dropShadow_4008_498"/>
<feBlend mode="normal" in="SourceGraphic" in2="effect1_dropShadow_4008_498" result="shape"/>
</filter>
</defs>
</svg>
